<svg preserveAspectRatio="none" width="100%" height="100%" overflow="visible" style="display: block;" viewBox="0 0 412 449" fill="none" xmlns="http://www.w3.org/2000/svg">
<g id="Laag_1" clip-path="url(#clip0_2036_56)">
<path id="Vector" d="M243.451 0.560292C181.723 5.83883 124.857 60.6147 85.4238 104.421C47.921 146.089 -4.89231 209.888 0.368397 269.338C9.16571 368.79 170.597 436.438 255.932 447.024C361.603 460.132 405.295 407.686 411.116 307.453C417.379 199.832 393.418 -12.2674 243.451 0.575036V0.560292ZM320.166 368.878C265.761 426.5 165.115 381.78 123.501 329.23C66.2082 256.894 98.2145 163.34 151.175 99.1126C192.686 48.7601 258.85 2.09372 313.27 65.4951C370.091 131.683 381.85 303.56 320.166 368.893V368.878Z" fill="var(--fill-0, white)" fill-opacity="0.2"/>
</g>
<defs>
<clipPath id="clip0_2036_56">
<rect width="412" height="449" fill="white"/>
</clipPath>
</defs>
</svg>
