<svg preserveAspectRatio="none" width="100%" height="100%" overflow="visible" style="display: block;" viewBox="0 0 448 206" fill="none" xmlns="http://www.w3.org/2000/svg">
<g id="Laag_1" clip-path="url(#clip0_2160_200)">
<path id="Vector" d="M2.28539 26.283L2.20377 25.3648L14.6102 1.50007L13.6579 1.58189C7.80842 2.10009 2.0496 3.05468 0 4.06382L0.444381 1.81826L21.1852 0L21.2668 0.918222L8.98739 24.7647L9.77639 24.692C15.6894 24.0465 21.3938 23.2283 23.4071 22.2192L22.9627 24.4647L2.28539 26.2739V26.283Z" fill="var(--fill-0, #FFFAF2)"/>
<path id="Vector_2" d="M24.8763 16.0553C25.1302 10.7096 29.574 7.5367 34.7434 7.78216C39.9218 8.02763 44.0754 11.6005 43.8215 16.9462C43.5675 22.2919 39.0965 25.492 33.9181 25.2466C28.7397 25.0011 24.6224 21.3919 24.8672 16.0462L24.8763 16.0553ZM38.1987 19.71C38.4073 15.3189 36.4756 8.97312 33.2379 8.82766C31.2065 8.72766 30.5716 10.7732 30.4719 12.8097C30.2633 17.2008 32.6484 23.9829 35.6321 24.1192C37.2827 24.2011 38.0808 22.1919 38.1896 19.71H38.1987Z" fill="var(--fill-0, #FFFAF2)"/>
<path id="Vector_3" d="M56.9715 27.4467L62.3948 3.52743L67.945 4.79112L65.6687 14.8279C67.5188 13.5551 70.2395 12.8006 72.806 13.3824C76.8689 14.3097 77.3587 16.7098 76.352 20.8827L73.985 31.3196L68.4347 30.0559L70.7292 19.9282C71.355 17.1644 71.5001 15.3643 69.6228 14.9097C68.3894 14.5916 66.6935 15.1916 65.3604 16.1916L62.5218 28.7104L56.9715 27.4467Z" fill="var(--fill-0, #FFFAF2)"/>
<path id="Vector_4" d="M79.0001 23.9738C80.6054 18.8645 85.6931 16.9007 90.6629 18.4645C94.3358 19.619 97.0747 22.9919 96.3038 25.9557C95.8776 27.6285 95.0795 27.8376 92.4676 27.0194L85.0855 24.6193L85.1217 24.5011L88.7947 25.4284C90.8624 25.9466 91.1708 25.2738 91.5607 24.0647C92.2953 21.7282 90.6357 19.4645 88.9126 19.119C87.0988 18.7463 85.8019 20.21 85.0945 22.4555C83.8793 26.3193 84.4506 32.2378 87.4797 34.0651C90.1913 35.7198 92.8395 34.8197 94.5898 33.6015L94.9344 33.9833C92.386 35.947 89.5111 36.7107 85.1489 35.1016C80.2517 33.2924 77.4221 28.9195 78.982 23.9647L79.0001 23.9738Z" fill="var(--fill-0, #FFFAF2)"/>
<path id="Vector_5" d="M101.745 39.3381L101.355 40.3472L96.0408 38.3017L104.801 15.3916L110.116 17.428L106.506 26.8648C108.23 25.6466 110.225 25.6011 111.866 26.0193C117.244 27.4376 118.369 33.056 116.573 37.4835C114.124 43.5383 108.792 43.4019 105.436 42.211C103.913 41.6564 102.57 40.6291 101.736 39.3199L101.745 39.3381ZM110.914 37.1653C112.311 33.5015 112.156 28.6649 109.191 27.4285C108.375 27.083 107.241 27.0921 106.08 28.0012L103.16 35.647C102.253 38.6381 104.022 40.6836 105.545 41.2382C107.849 42.0564 109.844 39.9563 110.914 37.1562V37.1653Z" fill="var(--fill-0, #FFFAF2)"/>
<path id="Vector_6" d="M121.751 47.4112L121.316 48.4021L116.101 46.1202L125.905 23.6465L131.12 25.9284L127.084 35.1834C128.862 34.047 130.857 34.0924 132.471 34.5924C137.776 36.2561 138.638 41.92 136.643 46.2566C133.913 52.1932 128.599 51.8114 125.307 50.4659C123.81 49.8477 122.513 48.7567 121.751 47.4112ZM131.011 45.6657C132.58 42.0746 132.643 37.238 129.741 35.8561C128.934 35.4652 127.81 35.4288 126.603 36.2925L123.329 43.7928C122.287 46.7384 123.964 48.8658 125.461 49.4931C127.728 50.4204 129.814 48.4112 131.011 45.6657Z" fill="var(--fill-0, #FFFAF2)"/>
<path id="Vector_7" d="M139.128 47.0748C141.431 42.2473 146.746 41.0109 151.443 43.2655C154.917 44.9293 157.157 48.6567 155.978 51.4841C155.325 53.0751 154.5 53.1751 152.033 51.9932L145.068 48.584L145.122 48.4658L148.632 49.9022C150.609 50.7113 151.008 50.0931 151.561 48.9385C152.613 46.7293 151.298 44.2565 149.639 43.6747C147.897 43.0474 146.41 44.3201 145.394 46.4384C143.653 50.084 143.39 56.0388 146.129 58.2662C148.578 60.2936 151.326 59.7754 153.23 58.8117L153.52 59.2299C150.718 60.8209 147.77 61.1663 143.68 58.9571C139.091 56.4752 136.897 51.7477 139.137 47.0657L139.128 47.0748Z" fill="var(--fill-0, #FFFAF2)"/>
<path id="Vector_8" d="M154.3 63.9028L161.401 48.584L166.271 50.8568L165.002 53.6024C167.133 52.5569 170.171 52.2841 172.737 53.4842C176.51 55.2388 176.501 57.6935 174.633 61.5664L170.135 71.2759L164.974 68.8758L169.346 59.4572C170.534 56.8843 171.06 55.157 169.309 54.3115C168.167 53.7478 166.389 53.966 164.866 54.6661L159.469 66.312L154.309 63.9119L154.3 63.9028Z" fill="var(--fill-0, #FFFAF2)"/>
<path id="Vector_9" d="M191.492 79.8217L190.077 61.5209L195.827 63.4664L196.761 76.4306L203.146 65.9484L207.182 67.3121L206.547 80.749L213.031 73.2578C213.911 72.2396 214.473 71.2577 214.745 69.8667L217.003 70.6304C215.87 71.5941 214.908 72.5759 213.974 73.6396L204.742 84.3037L201.042 83.0491L201.269 71.0213L195.201 81.0763L191.501 79.8217H191.492Z" fill="var(--fill-0, #FFFAF2)"/>
<path id="Vector_10" d="M215.081 87.2766L219.361 70.9486L224.866 72.3941L220.586 88.7221L215.081 87.2675V87.2766ZM220.386 66.412C220.812 64.7756 222.408 63.8483 224.068 64.2847C225.664 64.7029 226.598 66.3029 226.163 67.9303C225.737 69.5667 224.141 70.494 222.544 70.0758C220.885 69.6394 219.96 68.0394 220.386 66.412Z" fill="var(--fill-0, #FFFAF2)"/>
<path id="Vector_11" d="M218.028 97.4498C220.332 97.768 222.082 97.0861 223.089 95.6497C223.696 94.8405 224.195 93.1587 224.948 89.7949L228.621 73.3214L234.171 74.5669L230.498 91.0404C229.301 96.3861 228.457 97.4043 227.26 98.1134C225.229 99.3589 221.311 98.668 217.956 97.7861L218.028 97.4407V97.4498ZM229.31 68.7394C229.682 67.0939 231.233 66.1029 232.91 66.4757C234.525 66.8393 235.513 68.3939 235.141 70.0395C234.769 71.685 233.219 72.6759 231.604 72.3123C229.927 71.9395 228.947 70.3758 229.31 68.7303V68.7394Z" fill="var(--fill-0, #FFFAF2)"/>
<path id="Vector_12" d="M246.777 94.1042L249.289 69.694L254.948 70.2758L253.896 80.5126C255.583 79.0217 258.186 77.9489 260.816 78.2216C264.96 78.6489 265.74 80.9763 265.241 85.2492L264.144 95.8951L258.485 95.3133L259.546 84.9765C259.836 82.1582 259.764 80.3581 257.841 80.1217C256.58 79.9581 254.966 80.749 253.76 81.9127L252.445 94.686L246.786 94.1042H246.777Z" fill="var(--fill-0, #FFFAF2)"/>
<path id="Vector_13" d="M268.633 87.7312C268.579 82.3764 272.805 78.9217 278.01 78.8671C281.856 78.8308 285.501 81.1763 285.692 84.2401C285.801 85.9583 285.112 86.4129 282.373 86.4402L274.619 86.4584V86.3311L278.4 86.0674C280.532 85.9129 280.613 85.1856 280.604 83.9128C280.577 81.4582 278.301 79.8217 276.559 80.0399C274.718 80.249 273.939 82.04 273.966 84.4037C274.011 88.4494 276.387 93.9042 279.824 94.7042C282.917 95.4315 285.157 93.7587 286.445 92.0495L286.889 92.3041C285.075 94.9678 282.581 96.5861 277.938 96.4134C272.723 96.2133 268.678 92.9405 268.624 87.7493L268.633 87.7312Z" fill="var(--fill-0, #FFFAF2)"/>
<path id="Vector_14" d="M291.124 90.3949L289.691 78.658L287.197 78.9671L287.125 78.3307L289.619 78.0216L289.238 74.8851L294.888 74.1942L295.269 77.3216L297.98 76.9852L298.053 77.6216L295.341 77.958L296.774 89.6949C297.019 91.7222 297.237 93.495 299.005 93.2769C299.794 93.1768 300.438 92.9405 301.155 92.2768L301.345 92.5405C300.411 93.8132 298.47 94.9497 296.294 95.2133C292.412 95.6861 291.578 94.1223 291.124 90.3858V90.3949Z" fill="var(--fill-0, #FFFAF2)"/>
<path id="Vector_15" d="M317.198 87.1493C315.629 84.0764 318.377 81.64 321.115 79.3399C322.984 77.7398 324.879 76.2034 325.369 74.5578C324.616 72.6214 324.108 70.7577 322.304 71.2486C320.599 71.7304 318.83 74.3215 316.926 79.6035L313.697 77.167C315.828 73.2578 319.011 71.5668 321.279 70.5577C324.68 69.0485 328.978 68.703 330.729 72.6668L335.354 83.1218L330.438 85.3038L328.942 81.9218C327.863 85.2947 325.36 87.9039 323.129 88.8948C320.481 90.0676 318.286 89.2676 317.207 87.1311L317.198 87.1493ZM328.207 81.0672L325.931 75.9124C325.006 77.8216 323.065 79.0308 321.859 80.3035C320.843 81.3854 320.589 82.3036 320.998 83.1582C321.723 84.6492 323.365 84.9674 325.342 84.0855C326.566 83.54 327.709 82.5127 328.217 81.0672H328.207Z" fill="var(--fill-0, #FFFAF2)"/>
<path id="Vector_16" d="M341.203 78.3762L326.457 59.5935L330.538 55.5661L345.683 74.8488L341.212 78.3762H341.203Z" fill="var(--fill-0, #FFFAF2)"/>
<path id="Vector_17" d="M346.536 67.4848L338.437 58.8935L336.614 60.6209L336.179 60.1572L338.002 58.4298L335.844 56.1388L339.979 52.2205L342.137 54.5115L344.124 52.6296L344.559 53.0933L342.573 54.9752L350.671 63.5664C352.068 65.0483 353.292 66.3484 354.589 65.1211C355.17 64.5756 355.541 64.0028 355.723 63.0391L356.031 63.1391C356.031 64.721 355.142 66.7848 353.546 68.2939C350.708 70.985 349.102 70.2213 346.536 67.4848Z" fill="var(--fill-0, #FFFAF2)"/>
<path id="Vector_18" d="M343.706 47.2657C342.491 46.0929 342.455 44.2474 343.634 43.011C344.777 41.8109 346.618 41.7746 347.833 42.9383C349.048 44.1019 349.093 45.9566 347.942 47.1475C346.754 48.393 344.913 48.4294 343.697 47.2657H343.706ZM359.341 62.0482L347.171 50.3659L351.107 46.2475L363.277 57.9298L359.341 62.0482Z" fill="var(--fill-0, #FFFAF2)"/>
<path id="Vector_19" d="M350.445 40.2291C349.239 39.0472 349.229 37.2016 350.427 35.9743C351.587 34.7924 353.428 34.7743 354.626 35.9561C355.832 37.138 355.841 38.9835 354.689 40.1654C353.483 41.3927 351.642 41.4109 350.445 40.2291ZM368.809 65.0029C370.297 63.2119 370.641 61.3573 369.952 59.739C369.58 58.7935 368.429 57.4753 365.98 55.0661L353.963 43.2383L357.954 39.1654L369.97 50.9932C373.87 54.8297 374.287 56.0934 374.251 57.4844C374.224 59.8754 371.585 62.8482 369.063 65.2392L368.818 64.9938L368.809 65.0029Z" fill="var(--fill-0, #FFFAF2)"/>
<path id="Vector_20" d="M365.916 42.1837C361.89 37.0471 364.592 32.4105 367.349 30.1468C368.601 29.1195 370.161 28.4649 371.684 28.3649L366.198 21.6282L370.605 18.019L386.086 37.0107L381.678 40.62L380.109 38.6926C380.309 40.7927 379.357 42.5564 378.178 43.7747C374.278 47.7476 368.864 45.9384 365.916 42.1746V42.1837ZM379.348 37.7653L374.178 31.4287C372.038 29.1558 369.408 29.7013 368.175 30.7559C366.325 32.356 367.15 35.1379 369.036 37.4562C371.485 40.4654 375.756 42.7292 378.305 40.7654C379.012 40.229 379.565 39.2381 379.348 37.7744V37.7653Z" fill="var(--fill-0, #FFFAF2)"/>
<path id="Vector_21" d="M69.9493 149.87C68.5526 149.316 67.7364 148.325 67.4825 147.234C67.1288 145.679 67.9087 143.861 69.6953 142.697L69.7679 142.715C69.3326 144.352 70.1669 145.597 71.5636 146.416C73.6041 147.607 76.878 147.961 79.2631 147.416C80.7777 147.061 82.138 146.425 82.9452 145.552C83.5981 144.843 83.8883 143.997 83.6707 143.034C83.2535 141.234 81.2493 140.033 77.4766 140.934C75.962 141.288 74.4838 141.661 72.9602 142.015C66.9565 143.434 66.5756 140.515 68.2352 135.524C66.1494 134.833 64.7074 133.233 64.2267 131.151C63.3289 127.269 65.8501 124.296 70.6294 122.996C73.332 122.269 76.4971 119.451 77.8937 117.978L78.8732 121.378L73.2323 122.687C76.7601 122.687 79.381 124.596 80.0431 127.487C80.9409 131.369 78.3744 134.542 73.5406 135.661C71.8356 136.051 70.303 136.051 68.9608 135.742C67.3737 140.461 69.9946 140.215 71.3368 139.543C72.5702 138.933 73.7583 138.297 74.9826 137.688C76.7329 136.788 78.4469 136.297 79.9343 136.242C82.2106 136.206 84.0425 137.224 84.9403 139.697C85.6568 141.688 85.2578 143.906 83.7704 145.825C82.8635 146.979 81.5395 148.043 79.8073 148.87C76.9505 150.188 72.4795 150.925 69.9311 149.879L69.9493 149.87ZM76.479 131.188C75.7444 127.987 72.1258 123.496 68.9063 124.505C67.809 124.86 67.5823 125.824 67.8634 127.069C68.5708 130.142 72.6972 134.742 75.3907 134.124C76.5334 133.86 76.8145 132.651 76.479 131.188Z" fill="var(--fill-0, #FFFAF2)"/>
<path id="Vector_22" d="M83.5981 128.997C82.8454 123.696 86.5909 119.723 91.7512 118.987C95.5602 118.442 99.478 120.305 100.067 123.305C100.403 124.996 99.7682 125.533 97.0656 125.924L89.3751 126.951L89.3569 126.824L93.0662 126.069C95.1611 125.642 95.152 124.906 94.9707 123.642C94.626 121.214 92.1593 119.887 90.4543 120.323C88.6586 120.769 88.1145 122.651 88.45 124.987C89.0123 128.997 92.0777 134.097 95.5964 134.433C98.7524 134.76 100.757 132.797 101.809 130.942L102.28 131.133C100.829 134.006 98.562 135.942 93.9368 136.37C88.7403 136.851 84.3146 134.133 83.5891 128.988L83.5981 128.997Z" fill="var(--fill-0, #FFFAF2)"/>
<path id="Vector_23" d="M103.632 125.86C103.613 119.323 108.592 117.342 112.156 117.26C113.78 117.223 115.403 117.669 116.664 118.533L116.473 109.841L122.16 109.714L122.695 134.242L117.008 134.37L116.954 131.888C115.82 133.67 113.988 134.47 112.311 134.697C106.797 135.424 103.641 130.651 103.632 125.869V125.86ZM116.927 130.669L116.745 122.487C116.455 119.369 114.043 118.178 112.429 118.251C109.98 118.369 108.928 121.069 108.991 124.06C109.073 127.942 111.05 132.36 114.26 132.388C115.149 132.397 116.192 131.96 116.927 130.669Z" fill="var(--fill-0, #FFFAF2)"/>
<path id="Vector_24" d="M125.597 130.697C125.778 127.251 129.378 126.533 132.897 125.924C135.31 125.487 137.722 125.106 138.964 123.933C139.282 121.887 139.781 120.014 137.976 119.523C136.271 119.078 133.432 120.433 129.134 124.033L127.565 120.305C131.365 117.996 134.965 118.142 137.432 118.414C141.132 118.823 145.013 120.696 144.542 124.996L143.29 136.37L137.949 135.779L138.348 132.106C135.718 134.479 132.253 135.47 129.823 135.206C126.948 134.888 125.452 133.088 125.588 130.697H125.597ZM138.157 130.997L138.774 125.387C137.015 126.569 134.738 126.642 133.051 127.133C131.628 127.551 130.947 128.215 130.875 129.169C130.757 130.824 132.008 131.924 134.158 132.16C135.482 132.306 136.987 131.988 138.157 130.997Z" fill="var(--fill-0, #FFFAF2)"/>
<path id="Vector_25" d="M146.492 133.188C147.054 129.788 150.709 129.46 154.273 129.242C156.722 129.069 159.152 128.96 160.521 127.924C161.066 125.924 161.755 124.115 160.023 123.433C158.372 122.805 155.407 123.842 150.745 126.942L149.584 123.06C153.611 121.187 157.175 121.714 159.596 122.26C163.224 123.069 166.888 125.36 165.945 129.588L163.469 140.752L158.227 139.579L159.025 135.97C156.159 138.042 152.604 138.652 150.21 138.115C147.39 137.488 146.093 135.533 146.492 133.17V133.188ZM158.943 134.851L160.168 129.351C158.291 130.333 156.014 130.151 154.291 130.451C152.831 130.715 152.087 131.297 151.906 132.233C151.607 133.86 152.74 135.097 154.844 135.57C156.15 135.861 157.674 135.715 158.943 134.851Z" fill="var(--fill-0, #FFFAF2)"/>
<path id="Vector_26" d="M166.498 141.624L171.522 125.506L176.646 127.115L175.748 130.006C177.725 128.688 180.7 128.015 183.394 128.86C187.366 130.106 187.674 132.533 186.332 136.624L183.149 146.843L177.716 145.143L180.809 135.233C181.652 132.524 181.942 130.751 180.101 130.133C178.895 129.724 177.154 130.178 175.748 131.069L171.93 143.325L166.498 141.624Z" fill="var(--fill-0, #FFFAF2)"/>
<path id="Vector_27" d="M196.761 151.979L202.974 136.279L208.261 138.379L202.048 154.08L196.761 151.979ZM204.542 131.897C205.168 130.324 206.855 129.597 208.451 130.224C209.984 130.833 210.718 132.533 210.102 134.106C209.476 135.679 207.789 136.406 206.247 135.797C204.651 135.16 203.926 133.47 204.542 131.897Z" fill="var(--fill-0, #FFFAF2)"/>
<path id="Vector_28" d="M205.177 153.134L209.703 151.861C210.211 154.298 211.698 156.816 213.548 157.889C215.434 158.98 217.012 158.934 217.475 157.852C219.017 154.252 207.299 150.279 210.011 143.952C211.308 140.933 215.108 140.779 218.491 142.334C221.211 143.579 223.197 145.406 224.376 147.397L220.622 148.661C220.232 146.27 218.4 143.679 216.659 142.824C214.972 141.997 213.43 142.197 213.049 143.488C212.315 146.325 223.333 151.216 220.93 156.807C219.434 160.289 215.443 160.234 211.589 158.434C208.796 157.125 206.565 155.225 205.177 153.143V153.134Z" fill="var(--fill-0, #FFFAF2)"/>
<path id="Vector_29" d="M229.192 175.735C228.457 174.417 228.439 173.135 228.929 172.135C229.627 170.708 231.378 169.789 233.5 170.008L233.545 170.062C232.176 171.062 232.049 172.553 232.62 174.071C233.454 176.29 235.776 178.635 237.98 179.708C239.377 180.39 240.837 180.753 242.007 180.581C242.959 180.444 243.721 179.962 244.156 179.081C244.963 177.417 244.156 175.217 240.664 173.544C239.268 172.862 237.88 172.217 236.483 171.535C230.933 168.853 232.466 166.344 236.892 163.507C235.713 161.653 235.586 159.498 236.52 157.58C238.261 153.998 242.079 153.28 246.623 155.289C249.18 156.434 253.415 156.234 255.42 155.98L254.041 159.243L248.845 156.698C251.583 158.925 252.418 162.062 251.121 164.725C249.38 168.307 245.389 169.153 240.936 166.971C239.367 166.198 238.179 165.225 237.327 164.144C233.128 166.807 235.323 168.271 236.783 168.598C238.125 168.898 239.449 169.162 240.782 169.462C242.705 169.871 244.346 170.571 245.534 171.471C247.321 172.88 248.11 174.826 247.248 177.308C246.559 179.308 244.854 180.781 242.496 181.326C241.063 181.653 239.367 181.644 237.508 181.19C234.461 180.408 230.525 178.162 229.201 175.735H229.192ZM245.997 165.353C247.43 162.407 247.448 156.634 244.31 155.38C243.24 154.961 242.451 155.571 241.889 156.716C240.51 159.553 240.818 165.735 243.303 166.953C244.364 167.471 245.335 166.707 245.988 165.362L245.997 165.353Z" fill="var(--fill-0, #FFFAF2)"/>
<path id="Vector_30" d="M252.635 168.117C254.821 163.234 260.09 161.862 264.851 163.998C268.361 165.571 270.692 169.235 269.594 172.089C268.978 173.699 268.162 173.817 265.668 172.699L258.612 169.462L258.666 169.344L262.212 170.689C264.207 171.444 264.588 170.817 265.114 169.653C266.112 167.416 264.733 164.98 263.056 164.435C261.296 163.853 259.845 165.153 258.884 167.307C257.233 170.998 257.115 176.953 259.918 179.108C262.421 181.072 265.151 180.481 267.028 179.472L267.327 179.89C264.57 181.544 261.623 181.972 257.487 179.872C252.835 177.508 250.531 172.844 252.644 168.098L252.635 168.117Z" fill="var(--fill-0, #FFFAF2)"/>
<path id="Vector_31" d="M270.955 176.29C272.85 171.289 278.047 169.626 282.917 171.48C286.508 172.853 289.047 176.371 288.113 179.29C287.587 180.935 286.78 181.099 284.223 180.126L277.004 177.299L277.049 177.181L280.659 178.317C282.69 178.962 283.044 178.317 283.497 177.117C284.368 174.826 282.844 172.471 281.148 172.026C279.362 171.544 277.983 172.935 277.149 175.135C275.716 178.917 275.934 184.863 278.854 186.863C281.466 188.672 284.159 187.936 285.973 186.817L286.3 187.217C283.642 189.036 280.731 189.627 276.469 187.763C271.689 185.663 269.123 181.144 270.964 176.29H270.955Z" fill="var(--fill-0, #FFFAF2)"/>
<path id="Vector_32" d="M288.376 191.845L293.31 175.699L298.443 177.281L297.554 180.172C299.522 178.844 302.488 178.153 305.199 178.99C309.181 180.208 309.498 182.644 308.183 186.736L305.054 196.972L299.613 195.3L302.651 185.372C303.476 182.663 303.757 180.881 301.916 180.281C300.71 179.881 298.969 180.344 297.563 181.244L293.809 193.518L288.367 191.845H288.376Z" fill="var(--fill-0, #FFFAF2)"/>
<path id="Vector_33" d="M322.349 192.563C323.265 187.29 328.044 184.663 333.177 185.554C336.968 186.217 340.124 189.19 339.761 192.236C339.562 193.945 338.8 194.263 336.107 193.799L328.48 192.399L328.498 192.272L332.261 192.699C334.383 192.936 334.601 192.236 334.819 190.981C335.236 188.563 333.295 186.545 331.545 186.426C329.695 186.299 328.606 187.917 328.207 190.245C327.518 194.236 328.86 200.027 332.107 201.436C335.018 202.718 337.521 201.473 339.09 200.036L339.489 200.363C337.222 202.654 334.474 203.791 329.94 202.773C324.843 201.627 321.469 197.672 322.358 192.554L322.349 192.563Z" fill="var(--fill-0, #FFFAF2)"/>
<path id="Vector_34" d="M341.067 204.318C342.301 203.3 343.697 202.163 345.448 200.682L348.604 198L342.446 187.49L348.939 188.017L352.748 194.499L355.115 192.49C356.557 191.263 358.226 189.899 358.099 188.772L360.792 188.99C359.559 190.008 358.162 191.145 356.412 192.627L353.256 195.345L359.414 205.827L352.857 205.291L349.075 198.845L346.745 200.827C345.303 202.054 343.634 203.418 343.761 204.545L341.067 204.327V204.318Z" fill="var(--fill-0, #FFFAF2)"/>
<path id="Vector_35" d="M361.3 197.445C361.182 192.099 365.363 188.59 370.578 188.472C373.435 188.408 375.874 189.308 377.715 190.636L374.45 193.836C372.854 191.963 371.648 189.436 369.49 189.617C367.966 189.745 367.05 191.299 366.787 193.818C366.315 198.381 368.828 204.291 373.344 204.191C375.248 204.145 377.298 203.273 378.559 201.554L379.012 201.8C377.389 204.482 374.078 205.955 370.714 206C365.182 206.055 361.418 202.636 361.309 197.445H361.3Z" fill="var(--fill-0, #FFFAF2)"/>
<path id="Vector_36" d="M382.621 199.027L380.853 188.472L386.467 187.526L388.181 197.772C388.652 200.572 389.197 202.282 391.11 202C392.371 201.818 393.713 200.627 394.574 199.191L392.452 186.526L398.066 185.581L400.85 202.236L395.554 203.127L395.055 200.145C393.885 202.218 391.536 204.164 388.752 204.627C384.644 205.318 383.274 203.291 382.631 199.036L382.621 199.027Z" fill="var(--fill-0, #FFFAF2)"/>
<path id="Vector_37" d="M405.521 194.727L401.385 184.854L406.627 182.644L410.636 192.227C411.733 194.845 412.658 196.39 414.454 195.663C415.642 195.2 416.676 193.727 417.184 192.136L412.223 180.299L417.474 178.09L423.994 193.663L419.043 195.745L417.873 192.954C417.211 195.236 415.37 197.672 412.758 198.772C408.922 200.391 407.117 198.727 405.521 194.736V194.727Z" fill="var(--fill-0, #FFFAF2)"/>
<path id="Vector_38" d="M428.23 188.172L429.191 183.563C431.585 184.235 434.496 184.072 436.301 182.917C438.133 181.744 438.822 180.317 438.079 179.408C435.603 176.371 426.679 184.963 422.335 179.635C420.258 177.099 421.872 173.635 424.811 171.344C427.159 169.498 429.699 168.571 432.011 168.444L431.395 172.371C429.1 171.617 425.962 172.053 424.402 173.208C422.888 174.326 422.362 175.79 423.332 176.726C425.509 178.69 434.913 171.144 438.759 175.853C441.153 178.79 439.267 182.308 435.884 184.917C433.435 186.799 430.733 187.908 428.239 188.181L428.23 188.172Z" fill="var(--fill-0, #FFFAF2)"/>
<path id="Vector_39" d="M444.572 174.58C443.81 173.817 443.828 172.526 444.599 171.762C445.37 170.998 446.649 170.971 447.41 171.744C448.199 172.535 448.19 173.799 447.41 174.58C446.621 175.371 445.361 175.362 444.581 174.58H444.572Z" fill="var(--fill-0, #FFFAF2)"/>
</g>
<defs>
<clipPath id="clip0_2160_200">
<rect width="448" height="206" fill="white"/>
</clipPath>
</defs>
</svg>
