<svg preserveAspectRatio="none" width="100%" height="100%" overflow="visible" style="display: block;" viewBox="0 0 394 212" fill="none" xmlns="http://www.w3.org/2000/svg">
<g id="Laag_1" clip-path="url(#clip0_2160_163)">
<path id="Vector" d="M0.542939 24.2383L4.1936 20.5707C6.14998 23.2253 11.2047 24.8387 14.6214 24.3228C16.7369 23.9944 18.1691 22.8032 18.0193 21.1054C17.4951 15.543 0.571021 16.7061 0.00938052 7.02581C-0.215276 3.11431 3.76301 0.534774 8.65864 0.0845288C12.1221 -0.234395 15.96 0.365932 18.8056 1.92303L15.1549 5.59066C13.2079 2.9267 8.82713 1.15386 5.97213 1.62287C4.11872 1.92303 3.04224 3.08617 3.19201 4.69017C3.66004 9.73667 20.7713 9.23952 21.3704 18.629C21.6606 23.1878 16.9428 25.6078 11.4762 26.0112C7.58216 26.302 3.38858 25.8048 0.542939 24.2477V24.2383Z" fill="var(--fill-0, #FFFAF2)"/>
<path id="Vector_2" d="M24.0569 16.0119C24.2722 10.4963 28.7934 7.14765 34.1758 7.35401C37.1244 7.46657 39.5769 8.54529 41.3929 10.0367L37.8265 13.1228C36.2913 11.0873 35.2148 8.41396 32.9776 8.46086C31.405 8.49839 30.3567 10.0367 29.9261 12.6163C29.1585 17.2876 31.377 23.5253 36.0386 23.7036C38.0043 23.7786 40.1666 23.0094 41.5801 21.321L42.0294 21.6024C40.1854 24.2664 36.6938 25.5796 33.2117 25.4107C27.511 25.1293 23.851 21.3679 24.0476 16.0119H24.0569Z" fill="var(--fill-0, #FFFAF2)"/>
<path id="Vector_3" d="M43.7611 25.6359L47.6458 0.628468L53.4494 1.52896L51.8207 12.0159C53.6366 10.5714 56.3793 9.59586 59.0658 10.018C63.3156 10.684 63.9989 13.1134 63.2501 17.4845L61.5558 28.3936L55.7522 27.4931L57.3996 16.903C57.8489 14.0139 57.8677 12.1566 55.9019 11.8096C54.6102 11.5751 52.9065 12.3067 51.596 13.4323L49.5648 26.5176L43.7611 25.6171V25.6359Z" fill="var(--fill-0, #FFFAF2)"/>
<path id="Vector_4" d="M66.3204 22.9438L69.0818 12.2504L74.7637 13.7231L72.0772 24.0975C71.347 26.9303 71.1411 28.7782 73.0694 29.3129C74.3331 29.6787 76.1023 29.1159 77.5157 28.1216L80.8294 15.299L86.5113 16.7716L82.1492 33.6371L76.7856 32.2395L77.5625 29.2191C75.5968 30.673 72.5639 31.5172 69.737 30.7855C65.5809 29.7068 65.1409 27.2117 66.311 22.9344L66.3204 22.9438Z" fill="var(--fill-0, #FFFAF2)"/>
<path id="Vector_5" d="M87.6627 25.8328C89.956 19.4919 95.4882 19.3418 98.9704 20.5237C100.552 21.0677 101.975 22.0714 102.892 23.3565L105.785 14.8581L111.345 16.7623L103.183 40.7191L97.6224 38.8149L98.4462 36.3855C96.7144 37.7081 94.6551 37.83 92.9515 37.4548C87.3444 36.1979 85.9778 30.4479 87.6627 25.8141V25.8328ZM98.8487 35.2223L101.573 27.2211C102.396 24.0975 100.477 22.0902 98.8861 21.5743C96.4711 20.8239 94.496 23.0657 93.5037 25.9829C92.212 29.7819 92.5583 34.7627 95.6661 35.9258C96.5272 36.2541 97.688 36.1979 98.858 35.213L98.8487 35.2223Z" fill="var(--fill-0, #FFFAF2)"/>
<path id="Vector_6" d="M118.319 42.6232C119.545 39.2839 123.308 39.6685 126.968 40.1375C129.486 40.4377 131.967 40.8035 133.558 40.025C134.494 38.102 135.552 36.4136 133.923 35.3818C132.369 34.425 129.168 34.894 123.832 37.1359L123.411 32.9805C127.857 31.8643 131.368 33.1024 133.717 34.1155C137.237 35.6444 140.504 38.6742 138.735 42.7733L134.054 53.6074L128.962 51.403L130.469 47.9043C127.155 49.4426 123.439 49.3676 121.118 48.3639C118.375 47.1726 117.448 44.9495 118.3 42.6326L118.319 42.6232ZM130.628 46.7411L132.931 41.4038C130.834 42.0323 128.569 41.4038 126.762 41.3757C125.236 41.3569 124.366 41.8072 124.001 42.717C123.383 44.3117 124.291 45.775 126.332 46.6661C127.595 47.2101 129.177 47.3602 130.628 46.7411Z" fill="var(--fill-0, #FFFAF2)"/>
<path id="Vector_7" d="M137.658 55.3145L144.997 39.5184L142.919 38.5429L143.2 37.952L145.278 38.9275L145.68 38.0645C147.328 34.5188 150.791 33.8435 154.414 35.2505C157.025 36.2542 159.169 38.0176 160.741 40.0156L156.248 42.1261C155.659 40.4377 155.172 36.5074 153.899 36.2072C152.794 35.9446 151.942 38.5523 150.894 40.7941L150.604 41.4226L153.131 42.6045L152.85 43.1954L150.323 42.0135L142.984 57.8097L137.658 55.3239V55.3145Z" fill="var(--fill-0, #FFFAF2)"/>
<path id="Vector_8" d="M164.589 68.3341L164.954 49.3957L170.673 51.9658L170.345 65.37L177.946 55.2395L181.953 57.0405L179.968 70.773L187.373 63.7285C188.374 62.7717 189.057 61.815 189.469 60.4173L191.716 61.4304C190.462 62.3027 189.366 63.222 188.309 64.2163L177.769 74.253L174.09 72.5927L175.522 60.2579L168.286 69.9757L164.607 68.3154L164.589 68.3341Z" fill="var(--fill-0, #FFFAF2)"/>
<path id="Vector_9" d="M187.485 74.2249C188.524 70.8293 192.306 70.9887 195.984 71.2607C198.512 71.4202 201.02 71.6453 202.556 70.773C203.379 68.8031 204.343 67.0491 202.659 66.1204C201.058 65.2481 197.885 65.9047 192.689 68.4373L192.034 64.3101C196.415 62.9406 199.981 63.9818 202.387 64.8635C205.991 66.1861 209.426 69.0283 207.882 73.2306L203.819 84.3085L198.615 82.3949L199.925 78.8117C196.705 80.5377 192.989 80.669 190.611 79.7966C187.812 78.7648 186.755 76.5886 187.476 74.2342L187.485 74.2249ZM200 77.6392L202.003 72.18C199.944 72.9304 197.651 72.4333 195.835 72.4989C194.309 72.5646 193.457 73.0617 193.157 73.9997C192.633 75.6319 193.616 77.0389 195.713 77.8081C197.005 78.2864 198.596 78.3427 200 77.6392Z" fill="var(--fill-0, #FFFAF2)"/>
<path id="Vector_10" d="M210.306 80.8285L213.845 69.1596L211.364 68.3998L211.551 67.7713L214.032 68.5311L214.977 65.4169L220.594 67.1335L219.648 70.2477L222.344 71.0731L222.157 71.7016L219.461 70.8762L215.923 82.545C215.314 84.5617 214.781 86.3158 216.531 86.8505C217.317 87.085 218.019 87.1319 218.974 86.8036L219.049 87.1319C217.636 87.9386 215.333 88.2012 213.171 87.5352C209.314 86.3627 209.183 84.5336 210.306 80.8191V80.8285Z" fill="var(--fill-0, #FFFAF2)"/>
<path id="Vector_11" d="M233.699 92.76L236.937 75.6506L242.385 76.6825L241.805 79.7497C243.677 78.1645 246.644 77.1233 249.509 77.6674C253.73 78.4741 254.329 80.9223 253.44 85.2746L251.39 96.1274L245.624 95.03L247.618 84.5055C248.161 81.6352 248.245 79.7779 246.289 79.3652C245.006 79.0931 243.274 79.7591 241.936 80.8472L239.474 93.8574L233.708 92.76H233.699Z" fill="var(--fill-0, #FFFAF2)"/>
<path id="Vector_12" d="M256.37 96.6902L258.42 79.3839L264.252 80.0781L262.202 97.3844L256.37 96.6902ZM258.823 74.6001C259.028 72.8741 260.526 71.6922 262.286 71.8986C263.98 72.0956 265.16 73.5964 264.954 75.3317C264.748 77.0577 263.25 78.2395 261.565 78.0426C259.805 77.8362 258.626 76.3354 258.832 74.6001H258.823Z" fill="var(--fill-0, #FFFAF2)"/>
<path id="Vector_13" d="M266.742 89.2706C266.966 83.7551 271.506 80.4157 276.879 80.6409C280.848 80.8003 284.48 83.4268 284.518 86.5879C284.546 88.3607 283.806 88.7922 280.979 88.6796L272.985 88.2857V88.1543L276.898 88.0887C279.098 88.0512 279.229 87.3007 279.285 85.9875C279.388 83.4549 277.132 81.6539 275.325 81.7759C273.416 81.8978 272.517 83.6988 272.424 86.1282C272.255 90.3024 274.408 96.0524 277.918 97.0467C281.063 97.9659 283.46 96.3526 284.883 94.6735L285.332 94.9549C283.319 97.6001 280.661 99.1385 275.887 98.707C270.523 98.2192 266.536 94.636 266.751 89.28L266.742 89.2706Z" fill="var(--fill-0, #FFFAF2)"/>
<path id="Vector_14" d="M289.666 93.2759L288.964 81.1005L286.38 81.2506L286.343 80.594L288.926 80.4439L288.739 77.1984L294.599 76.8607L294.786 80.1062L297.604 79.9467L297.641 80.6033L294.824 80.7628L295.526 92.9382C295.647 95.0393 295.75 96.8778 297.585 96.7747C298.399 96.7278 299.083 96.5214 299.869 95.8835L300.047 96.1649C298.999 97.4125 296.93 98.4537 294.665 98.585C290.639 98.8195 289.881 97.1499 289.657 93.2759H289.666Z" fill="var(--fill-0, #FFFAF2)"/>
<path id="Vector_15" d="M318.506 95.8179L312.515 79.459L317.72 77.5454L318.778 80.4439C319.386 78.1926 320.64 76.0821 323.196 75.1441C325.995 74.1123 327.68 74.6845 328.971 76.523C329.608 74.3656 330.825 72.3394 333.324 71.4202C337.359 69.9381 339.072 71.7579 340.597 75.9227L344.388 86.2877L338.875 88.3138L335.196 78.2583C334.195 75.5099 333.502 74.0091 332.004 74.3187C330.703 74.5907 330.179 76.0071 329.599 77.5829C329.898 78.2114 330.179 78.8774 330.46 79.6466L334.26 90.0116L328.747 92.0377L325.068 81.9822C324.066 79.2338 323.374 77.733 321.876 78.0426C320.575 78.3146 320.051 79.731 319.452 81.3537L324.001 93.7918L318.487 95.8179H318.506Z" fill="var(--fill-0, #FFFAF2)"/>
<path id="Vector_16" d="M345.306 74.1967C341.721 70.0038 342.769 64.4695 346.85 60.9614C349.864 58.3725 354.301 57.8003 356.473 60.089C357.699 61.3741 357.456 62.1902 355.312 64.0287L349.19 69.1971L349.106 69.0939L351.914 66.3737C353.496 64.8354 353.085 64.1975 352.223 63.2032C350.576 61.2803 347.702 61.5054 346.457 62.828C345.137 64.2163 345.718 66.1486 347.29 67.9965C350.005 71.1669 355.49 73.8966 358.738 72.2269C361.668 70.7542 362.323 67.9308 362.211 65.7359L362.726 65.6327C363.054 68.9439 362.155 71.8798 358.373 74.8346C354.124 78.1457 348.76 78.2489 345.278 74.178L345.306 74.1967Z" fill="var(--fill-0, #FFFAF2)"/>
<path id="Vector_17" d="M360.882 60.3235C356.894 56.5152 357.39 50.8965 361.097 46.9944C363.84 44.1147 368.202 43.1016 370.589 45.1653C371.937 46.319 371.768 47.1632 369.821 49.2081L364.252 54.9675L364.158 54.8737L366.686 51.8814C368.108 50.2024 367.631 49.6021 366.686 48.6922C364.86 46.9475 362.015 47.454 360.91 48.8985C359.74 50.4181 360.498 52.2754 362.258 53.9544C365.272 56.8341 371.01 59.0009 374.071 57.0217C376.833 55.2583 377.207 52.3879 376.879 50.2118L377.385 50.0617C378.04 53.326 377.441 56.337 373.968 59.6482C370.065 63.3627 364.748 64.0099 360.873 60.3048L360.882 60.3235Z" fill="var(--fill-0, #FFFAF2)"/>
<path id="Vector_18" d="M381.625 51.0185L370.177 37.905L374.352 34.2468L376.421 36.62C376.336 33.4214 377.843 30.6542 379.641 29.0784C380.68 28.2154 381.784 27.6807 382.777 27.6807L383.713 31.7048C380.493 32.2582 376.926 33.1118 377.347 37.1922L386.034 47.1445L381.616 51.0185H381.625Z" fill="var(--fill-0, #FFFAF2)"/>
<path id="Vector_19" d="M50.3791 143.835L39.5395 128.32L45.6707 127.026L53.2903 138.047L53.4775 125.375L57.7741 124.465L64.2423 136.734L66.077 126.669C66.3297 125.309 66.311 124.136 65.8242 122.758L68.2299 122.251C67.7245 123.696 67.3875 125.084 67.116 126.519L64.5044 140.842L60.5542 141.677L54.4604 130.871L54.3293 142.99L50.3791 143.825V143.835Z" fill="var(--fill-0, #FFFAF2)"/>
<path id="Vector_20" d="M71.1411 130.834C70.6637 125.328 74.7356 121.444 80.0993 120.975C84.0495 120.628 87.9903 122.758 88.4303 125.891C88.683 127.654 87.9997 128.17 85.1915 128.414L77.2068 129.042V128.911L81.0634 128.339C83.2444 128.02 83.2725 127.251 83.1602 125.947C82.9449 123.424 80.4737 121.923 78.6952 122.279C76.8137 122.636 76.1584 124.549 76.3737 126.969C76.7294 131.125 79.6125 136.556 83.207 137.1C86.4458 137.606 88.6175 135.702 89.8063 133.854L90.2837 134.079C88.6268 136.959 86.1837 138.826 81.391 139.013C76.0086 139.22 71.5998 136.171 71.1317 130.834H71.1411Z" fill="var(--fill-0, #FFFAF2)"/>
<path id="Vector_21" d="M92.7362 137.925L93.2416 120.506L98.7832 120.666L98.6896 123.818C100.796 121.416 103.782 120.413 106.169 120.488C107.517 120.563 108.687 120.919 109.417 121.604L107.376 125.196C104.643 123.405 101.442 121.604 98.9797 124.887L98.596 138.094L92.7268 137.925H92.7362Z" fill="var(--fill-0, #FFFAF2)"/>
<path id="Vector_22" d="M110.278 138.488L113.91 113.434L119.723 114.278L116.091 139.332L110.278 138.488ZM122.222 140.233L117.785 129.924C120.912 128.451 124.703 126.575 127.867 124.877C128.475 124.53 128.99 124.015 129.046 123.621L132.126 124.071C131.021 124.577 129.907 124.943 128.728 125.534L122.98 128.348C126.566 136.809 127.258 138.169 129.627 141.311L122.222 140.233Z" fill="var(--fill-0, #FFFAF2)"/>
<path id="Vector_23" d="M133.464 136.978L136.207 125.103L133.68 124.521L133.83 123.883L136.357 124.465L137.087 121.294L142.806 122.626L142.076 125.797L144.828 126.435L144.679 127.072L141.926 126.435L139.184 138.31C138.706 140.364 138.295 142.156 140.082 142.568C140.878 142.756 141.59 142.747 142.526 142.362L142.619 142.69C141.262 143.591 138.987 144.004 136.778 143.497C132.847 142.587 132.594 140.777 133.464 136.997V136.978Z" fill="var(--fill-0, #FFFAF2)"/>
<path id="Vector_24" d="M144.332 149.566C145.708 148.515 147.019 146.864 146.195 145.926C145.83 145.514 145.25 144.913 145.577 143.741C145.886 142.634 147.019 141.987 148.123 142.296C149.321 142.634 149.864 143.769 149.49 145.101C148.891 147.249 146.457 148.694 144.454 149.772L144.342 149.575L144.332 149.566Z" fill="var(--fill-0, #FFFAF2)"/>
<path id="Vector_25" d="M165.806 142.353C167.715 137.175 173.051 135.402 178.096 137.269C181.822 138.647 184.471 142.259 183.535 145.279C183.01 146.977 182.177 147.155 179.528 146.18L172.04 143.338L172.087 143.216L175.831 144.36C177.937 144.998 178.293 144.322 178.751 143.094C179.622 140.72 178.031 138.31 176.271 137.869C174.417 137.391 173.013 138.835 172.171 141.114C170.729 145.035 171.019 151.161 174.043 153.196C176.758 155.044 179.528 154.247 181.391 153.083L181.728 153.487C179.004 155.391 175.999 156.029 171.59 154.153C166.639 152.033 163.943 147.399 165.796 142.371L165.806 142.353Z" fill="var(--fill-0, #FFFAF2)"/>
<path id="Vector_26" d="M182.748 158.008L189.535 141.968L194.636 144.135L193.42 147.005C195.582 145.851 198.699 145.467 201.385 146.602C205.336 148.281 205.411 150.814 203.623 154.866L199.326 165.034L193.916 162.736L198.091 152.868C199.233 150.176 199.701 148.375 197.875 147.568C196.677 147.024 194.852 147.315 193.307 148.093L188.149 160.287L182.748 157.989V158.008Z" fill="var(--fill-0, #FFFAF2)"/>
<path id="Vector_27" d="M210.147 180.089C209.379 178.729 209.37 177.406 209.876 176.374C210.596 174.892 212.403 173.954 214.593 174.179L214.64 174.236C213.227 175.267 213.096 176.815 213.685 178.382C214.547 180.661 216.952 183.081 219.227 184.188C220.668 184.891 222.176 185.257 223.392 185.079C224.375 184.938 225.162 184.441 225.602 183.522C226.435 181.805 225.602 179.535 221.988 177.809C220.547 177.106 219.115 176.449 217.664 175.736C211.926 172.979 213.508 170.39 218.066 167.454C216.84 165.54 216.718 163.327 217.673 161.338C219.47 157.642 223.402 156.892 228.091 158.955C230.731 160.128 235.103 159.922 237.171 159.65L235.758 163.017L230.385 160.4C233.212 162.689 234.082 165.934 232.753 168.683C230.956 172.378 226.846 173.26 222.241 171.018C220.622 170.23 219.386 169.227 218.506 168.101C214.182 170.859 216.437 172.36 217.954 172.697C219.339 173.007 220.706 173.27 222.091 173.579C224.076 174.001 225.77 174.714 226.996 175.643C228.85 177.087 229.664 179.095 228.784 181.665C228.073 183.728 226.313 185.248 223.889 185.82C222.41 186.158 220.659 186.148 218.74 185.689C215.586 184.882 211.532 182.584 210.147 180.079V180.089ZM227.474 169.339C228.953 166.291 228.953 160.334 225.714 159.049C224.609 158.618 223.795 159.246 223.224 160.428C221.801 163.355 222.138 169.733 224.712 170.981C225.807 171.515 226.809 170.718 227.483 169.33L227.474 169.339Z" fill="var(--fill-0, #FFFAF2)"/>
<path id="Vector_28" d="M232.266 176.665C233.549 173.345 237.302 173.785 240.953 174.32C243.462 174.658 245.942 175.061 247.543 174.311C248.507 172.407 249.593 170.727 247.974 169.677C246.438 168.692 243.228 169.114 237.864 171.272L237.508 167.107C241.973 166.066 245.456 167.351 247.786 168.401C251.287 169.986 254.507 173.063 252.663 177.134L247.814 187.884L242.76 185.595L244.323 182.115C240.99 183.597 237.274 183.466 234.972 182.424C232.248 181.196 231.349 178.944 232.248 176.646L232.266 176.665ZM244.51 180.971L246.897 175.671C244.791 176.271 242.535 175.605 240.728 175.549C239.203 175.511 238.323 175.943 237.948 176.853C237.302 178.438 238.192 179.92 240.223 180.839C241.477 181.411 243.059 181.58 244.51 180.98V180.971Z" fill="var(--fill-0, #FFFAF2)"/>
<path id="Vector_29" d="M269.831 196.279L268.399 177.387L274.333 179.404L275.391 194.178L282.561 186.308C283.497 185.276 284.021 184.235 284.302 182.8L286.633 183.597C285.463 184.591 284.489 185.614 283.497 186.692L273.64 197.573L269.821 196.27L269.831 196.279Z" fill="var(--fill-0, #FFFAF2)"/>
<path id="Vector_30" d="M284.817 192.152C286.24 186.814 291.398 184.554 296.593 185.951C300.431 186.983 303.407 190.332 302.752 193.418C302.387 195.163 301.573 195.416 298.849 194.684L291.136 192.546L291.173 192.414L295.002 193.202C297.154 193.643 297.454 192.94 297.791 191.673C298.446 189.225 296.63 186.974 294.842 186.692C292.952 186.392 291.688 187.959 291.061 190.304C289.984 194.337 290.836 200.425 294.037 202.16C296.911 203.746 299.598 202.695 301.348 201.363L301.722 201.738C299.186 203.886 296.256 204.796 291.688 203.333C286.558 201.682 283.45 197.311 284.826 192.133L284.817 192.152Z" fill="var(--fill-0, #FFFAF2)"/>
<path id="Vector_31" d="M304.484 206.241L307.713 189.122L313.161 190.154L312.581 193.259C315.033 191.214 318.141 190.698 320.491 191.139C321.81 191.42 322.906 191.964 323.523 192.752L320.949 195.979C318.525 193.784 315.651 191.495 312.712 194.356L310.269 207.347L304.503 206.259L304.484 206.241Z" fill="var(--fill-0, #FFFAF2)"/>
<path id="Vector_32" d="M322.84 200.509C323.664 193.821 329.018 192.424 332.669 192.799C334.335 192.968 335.945 193.634 337.125 194.684L338.042 185.754L343.883 186.355L341.29 211.54L335.449 210.94L335.711 208.389C334.316 210.058 332.341 210.649 330.591 210.668C324.853 210.706 322.222 205.406 322.831 200.509H322.84ZM335.842 207.141L336.703 198.737C336.806 195.51 334.485 193.981 332.819 193.84C330.301 193.643 328.878 196.279 328.56 199.346C328.148 203.333 329.599 208.117 332.884 208.558C333.792 208.679 334.915 208.37 335.833 207.141H335.842Z" fill="var(--fill-0, #FFFAF2)"/>
<path id="Vector_33" d="M345.961 203.08C345.886 197.564 350.23 193.981 355.603 193.906C359.572 193.849 363.344 196.26 363.55 199.412C363.671 201.185 362.96 201.654 360.142 201.691L352.139 201.738V201.607L356.033 201.325C358.233 201.166 358.317 200.406 358.298 199.093C358.261 196.56 355.911 194.891 354.114 195.106C352.214 195.332 351.418 197.179 351.456 199.618C351.512 203.792 353.983 209.411 357.54 210.218C360.732 210.959 363.035 209.223 364.355 207.46L364.813 207.713C362.951 210.471 360.386 212.15 355.593 211.981C350.211 211.794 346.036 208.436 345.961 203.08Z" fill="var(--fill-0, #FFFAF2)"/>
<path id="Vector_34" d="M369.522 211.081L367.004 193.849L372.489 193.043L372.948 196.166C374.605 193.427 377.366 191.927 379.734 191.58C381.073 191.42 382.28 191.579 383.123 192.114L381.738 196.007C378.733 194.722 375.269 193.502 373.425 197.161L375.335 210.237L369.522 211.09V211.081Z" fill="var(--fill-0, #FFFAF2)"/>
<path id="Vector_35" d="M389.937 205.8C389.647 204.721 390.321 203.586 391.398 203.295C392.474 203.004 393.635 203.642 393.925 204.721C394.225 205.828 393.579 206.963 392.474 207.263C391.37 207.563 390.237 206.916 389.937 205.809V205.8Z" fill="var(--fill-0, #FFFAF2)"/>
</g>
<defs>
<clipPath id="clip0_2160_163">
<rect width="394" height="212" fill="white"/>
</clipPath>
</defs>
</svg>
