<svg preserveAspectRatio="none" width="100%" height="100%" overflow="visible" style="display: block;" viewBox="0 0 403.98 184.75" fill="none" xmlns="http://www.w3.org/2000/svg">
<g id="Laag_1" clip-path="url(#clip0_2160_286)">
<path id="Vector" d="M0 23.16L3.19 20.15C5.47 22.95 7.67 24.66 10.6 23.99C13.49 23.32 14.77 20.85 13.95 17.25L10.25 1.2L15.48 0L18.6 13.59C20.04 19.85 16.05 23.93 9.74 25.38C6.26 26.18 2.76 25.54 0 23.16Z" fill="var(--fill-0, white)"/>
<path id="Vector_2" d="M21.76 14.21C21.05 9.22 24.58 5.48 29.46 4.79C33.05 4.28 36.76 6.03 37.31 8.86C37.63 10.45 37.03 10.96 34.48 11.32L27.22 12.29L27.2 12.17L30.71 11.46C32.68 11.06 32.68 10.36 32.51 9.17C32.19 6.88 29.86 5.64 28.25 6.05C26.55 6.47 26.04 8.24 26.36 10.44C26.9 14.21 29.79 19.02 33.11 19.33C36.09 19.63 37.98 17.79 38.98 16.04L39.43 16.22C38.06 18.93 35.92 20.75 31.55 21.16C26.64 21.61 22.46 19.05 21.78 14.21H21.76Z" fill="var(--fill-0, white)"/>
<path id="Vector_3" d="M52.79 18.63L53.58 2.75L58.64 3L58.5 5.82C59.81 4.14 61.62 2.82 64.11 2.94C66.84 3.07 68.04 4.16 68.49 6.16C69.8 4.57 71.54 3.31 73.97 3.43C77.9 3.62 78.69 5.77 78.49 9.81L77.99 19.88L72.63 19.62L73.11 9.85C73.24 7.18 73.2 5.68 71.83 5.4C70.64 5.16 69.69 6.17 68.64 7.28C68.67 7.91 68.67 8.57 68.64 9.32L68.14 19.39L62.78 19.12L63.26 9.35C63.39 6.68 63.35 5.18 61.98 4.9C60.79 4.66 59.84 5.67 58.76 6.81L58.16 18.89L52.8 18.63H52.79Z" fill="var(--fill-0, white)"/>
<path id="Vector_4" d="M81.5396 12.5702C82.4196 7.61016 86.9596 5.18016 91.7696 6.03016C96.5896 6.88016 100.05 10.7202 99.1696 15.6802C98.2896 20.6402 93.7196 23.0902 88.8996 22.2402C84.0796 21.3902 80.6496 17.5202 81.5296 12.5602L81.5396 12.5702ZM93.5696 17.5902C94.2896 13.5102 93.2396 7.36016 90.2296 6.83016C88.3396 6.50016 87.4996 8.33016 87.1596 10.2202C86.4396 14.3002 87.8596 20.9102 90.6396 21.4002C92.1796 21.6702 93.1596 19.9002 93.5696 17.5902Z" fill="var(--fill-0, white)"/>
<path id="Vector_5" d="M101.54 16.25C102.82 11.37 107.52 9.29 112.28 10.54C115.79 11.46 118.53 14.51 117.94 17.33C117.62 18.92 116.87 19.16 114.37 18.5L107.3 16.58L107.33 16.46L110.84 17.16C112.81 17.55 113.08 16.91 113.38 15.75C113.97 13.52 112.3 11.47 110.66 11.22C108.93 10.95 107.78 12.39 107.22 14.54C106.25 18.23 107.06 23.77 110 25.35C112.63 26.78 115.09 25.82 116.68 24.59L117.02 24.93C114.7 26.9 112.03 27.75 107.85 26.43C103.15 24.95 100.29 20.97 101.53 16.24L101.54 16.25Z" fill="var(--fill-0, white)"/>
<path id="Vector_6" d="M120.27 24.6797L123.66 14.0797L121.4 13.3597L121.58 12.7897L123.84 13.5097L124.74 10.6797L129.86 12.3097L128.96 15.1397L131.42 15.9197L131.24 16.4897L128.78 15.6997L125.4 26.2997C124.82 28.1297 124.3 29.7297 125.9 30.2397C126.61 30.4697 127.26 30.5197 128.14 30.2397L128.2 30.5397C126.9 31.2597 124.79 31.4697 122.82 30.8397C119.3 29.7197 119.21 28.0497 120.28 24.6797H120.27Z" fill="var(--fill-0, white)"/>
<path id="Vector_7" d="M142.22 28.7306C144.07 24.0406 148.99 22.5306 153.57 24.3406C156.95 25.6706 159.3 29.0206 158.38 31.7606C157.87 33.3006 157.1 33.4506 154.7 32.5006L147.91 29.7606L147.95 29.6506L151.35 30.7706C153.26 31.4006 153.6 30.7906 154.04 29.6706C154.89 27.5206 153.48 25.2906 151.88 24.8506C150.2 24.3806 148.88 25.6706 148.07 27.7306C146.67 31.2706 146.81 36.8806 149.54 38.7906C151.98 40.5306 154.54 39.8606 156.27 38.8306L156.57 39.2106C154.04 40.8906 151.28 41.4106 147.28 39.6106C142.79 37.5806 140.42 33.2906 142.22 28.7406V28.7306Z" fill="var(--fill-0, white)"/>
<path id="Vector_8" d="M157.43 43.3798L163.77 28.7998L168.42 30.8198L167.27 33.4598C169.87 32.1398 172.74 32.3098 174.75 33.1798C175.87 33.6998 176.74 34.3998 177.13 35.2298L174.18 37.5798C172.46 35.1298 170.36 32.5198 167.16 34.4598L162.35 45.5198L157.43 43.3798Z" fill="var(--fill-0, white)"/>
<path id="Vector_9" d="M182.54 54.61L189.48 40.3L194.04 42.51L192.8 45.07C194.83 44.12 197.7 43.91 200.1 45.07C203.64 46.78 203.58 49.09 201.76 52.71L197.36 61.78L192.53 59.44L196.8 50.64C197.97 48.24 198.48 46.62 196.85 45.8C195.78 45.25 194.1 45.43 192.65 46.07L187.37 56.95L182.54 54.61Z" fill="var(--fill-0, white)"/>
<path id="Vector_10" d="M200.69 63.4707L207.51 49.1107L212.36 51.4107L205.54 65.7707L200.69 63.4707ZM209.25 45.0907C209.93 43.6507 211.57 43.0707 213.03 43.7607C214.44 44.4307 215.02 46.0707 214.34 47.5007C213.66 48.9407 212.02 49.5207 210.61 48.8507C209.15 48.1607 208.56 46.5207 209.24 45.0807L209.25 45.0907Z" fill="var(--fill-0, white)"/>
<path id="Vector_11" d="M211.61 59.9196C213.61 55.2996 218.58 53.9496 223.09 55.9096C226.42 57.3496 228.66 60.7796 227.66 63.4796C227.1 64.9996 226.33 65.1296 223.96 64.0996L217.27 61.1296L217.32 61.0196L220.68 62.2496C222.57 62.9396 222.93 62.3396 223.41 61.2396C224.33 59.1196 222.99 56.8396 221.41 56.3496C219.74 55.8196 218.39 57.0696 217.5 59.0996C215.98 62.5996 215.94 68.1996 218.6 70.2096C220.98 72.0296 223.56 71.4396 225.32 70.4696L225.61 70.8596C223.02 72.4496 220.25 72.8896 216.32 70.9496C211.9 68.7696 209.67 64.4096 211.62 59.9196H211.61Z" fill="var(--fill-0, white)"/>
<path id="Vector_12" d="M229.33 70.8897L233.34 60.5097L231.13 59.6597L231.35 59.0997L233.56 59.9497L234.63 57.1797L239.64 59.1097L238.57 61.8797L240.98 62.8097L240.76 63.3697L238.35 62.4397L234.34 72.8197C233.65 74.6097 233.04 76.1797 234.61 76.7797C235.31 77.0497 235.95 77.1397 236.85 76.8997L236.89 77.2097C235.55 77.8497 233.43 77.9297 231.5 77.1897C228.06 75.8597 228.06 74.1897 229.33 70.8897Z" fill="var(--fill-0, white)"/>
<path id="Vector_13" d="M254.85 83.89L254.56 84.87L249.41 83.34L256 61.2L261.15 62.73L258.44 71.84C259.98 70.58 261.85 70.38 263.42 70.66C268.59 71.6 270.04 76.79 268.67 81.08C266.8 86.94 261.78 87.2 258.53 86.32C257.06 85.91 255.72 85.04 254.85 83.88V83.89ZM263.33 81.19C264.38 77.65 263.88 73.12 261.01 72.17C260.21 71.9 259.15 71.99 258.12 72.94L255.92 80.33C255.28 83.21 257.1 85 258.57 85.41C260.8 86.01 262.53 83.9 263.33 81.19Z" fill="var(--fill-0, white)"/>
<path id="Vector_14" d="M269.96 89.21L273.75 73.77L278.96 75.05L275.17 90.49L269.96 89.21ZM274.65 69.48C275.03 67.94 276.52 67.04 278.09 67.42C279.6 67.79 280.51 69.28 280.13 70.82C279.75 72.36 278.26 73.27 276.75 72.89C275.18 72.5 274.28 71.02 274.66 69.47L274.65 69.48Z" fill="var(--fill-0, white)"/>
<path id="Vector_15" d="M272.84 98.7094C275.02 98.9894 276.66 98.3194 277.6 96.9494C278.16 96.1794 278.62 94.5894 279.29 91.4194L282.57 75.8594L287.82 76.9694L284.54 92.5294C283.47 97.5794 282.69 98.5494 281.56 99.2294C279.65 100.419 275.94 99.8194 272.77 99.0294L272.84 98.7094ZM283.18 71.5494C283.51 69.9894 284.97 69.0394 286.55 69.3794C288.08 69.6994 289.03 71.1594 288.7 72.7194C288.37 74.2794 286.91 75.2294 285.39 74.8994C283.8 74.5694 282.85 73.1094 283.18 71.5494Z" fill="var(--fill-0, white)"/>
<path id="Vector_16" d="M299.65 95.2705L302.15 72.3105L307.49 72.8905L306.44 82.5205C308.04 81.1305 310.5 80.1306 312.98 80.4006C316.89 80.8306 317.61 83.0206 317.11 87.0406L316.02 97.0605L310.68 96.4806L311.74 86.7606C312.03 84.1106 311.97 82.4105 310.16 82.1805C308.97 82.0205 307.44 82.7605 306.3 83.8405L304.99 95.8605L299.65 95.2805V95.2705Z" fill="var(--fill-0, white)"/>
<path id="Vector_17" d="M320.17 89.4104C320.24 84.3704 324.33 81.2504 329.22 81.3104C334.11 81.3804 338.15 84.6104 338.08 89.6504C338.01 94.6904 333.89 97.8404 329 97.7804C324.11 97.7204 320.1 94.4504 320.17 89.4104ZM332.85 92.4404C332.91 88.3004 330.89 82.3904 327.83 82.3504C325.91 82.3204 325.37 84.2704 325.35 86.1904C325.29 90.3304 327.76 96.6304 330.58 96.6704C332.14 96.6904 332.83 94.7804 332.86 92.4404H332.85Z" fill="var(--fill-0, white)"/>
<path id="Vector_18" d="M342.05 97.3605L340.59 81.5305L345.64 81.0605L345.91 83.9305C347.55 81.5205 350.15 80.2805 352.33 80.0805C353.56 80.0005 354.66 80.2005 355.4 80.7305L353.94 84.2105C351.26 82.8905 348.15 81.6105 346.29 84.8605L347.4 96.8705L342.05 97.3705V97.3605Z" fill="var(--fill-0, white)"/>
<path id="Vector_19" d="M356.53 88.0906C355.48 83.1606 358.75 79.1806 363.56 78.1606C367.11 77.4106 370.92 78.8906 371.67 81.6806C372.1 83.2506 371.54 83.7906 369.01 84.3306L361.84 85.7906L361.81 85.6706L365.26 84.7206C367.2 84.1806 367.15 83.4906 366.9 82.3206C366.42 80.0606 364.01 78.9806 362.44 79.5006C360.78 80.0406 360.39 81.8406 360.85 84.0106C361.64 87.7406 364.86 92.3306 368.19 92.4206C371.19 92.5206 372.94 90.5506 373.82 88.7406L374.28 88.8906C373.1 91.6906 371.09 93.6506 366.76 94.3506C361.9 95.1406 357.55 92.8706 356.53 88.0906Z" fill="var(--fill-0, white)"/>
<path id="Vector_20" d="M379.9 90.85L373.6 76.25L378.25 74.24L379.38 76.86C379.98 74.7 381.7 72.4 384.15 71.34C387.76 69.78 389.47 71.34 391.02 75.07L395.01 84.32L390.08 86.45L386.2 77.47C385.14 75.02 384.26 73.57 382.56 74.27C381.45 74.72 380.48 76.11 380.02 77.62L384.81 88.72L379.88 90.85H379.9Z" fill="var(--fill-0, white)"/>
<path id="Vector_21" d="M403.43 83.2094C403.46 81.6294 403.02 79.7494 401.87 79.8094C401.37 79.8394 400.61 79.9194 399.95 79.0194C399.33 78.1694 399.51 76.9994 400.36 76.3794C401.28 75.7094 402.4 75.9594 403.14 76.9794C404.35 78.6294 403.99 81.1894 403.63 83.2394L403.42 83.2094H403.43Z" fill="var(--fill-0, white)"/>
<path id="Vector_22" d="M53.5396 89.2899C53.1496 87.7499 54.0396 86.2499 55.6096 85.8599C57.1196 85.4799 58.6196 86.3699 58.9996 87.9099C59.3796 89.4499 58.4996 90.9499 56.9896 91.3299C55.4196 91.7299 53.9296 90.8299 53.5396 89.2899ZM56.1996 118.22C58.2796 117.51 59.4596 116.19 59.6996 114.55C59.8696 113.61 59.5796 111.98 58.7796 108.84L54.8896 93.4299L60.0996 92.1199L63.9896 107.53C65.2496 112.53 64.9696 113.75 64.2596 114.86C63.0696 116.77 59.4796 117.86 56.2796 118.54L56.1996 118.22Z" fill="var(--fill-0, white)"/>
<path id="Vector_23" d="M64.94 99.01C63.93 94.07 67.23 90.12 72.04 89.14C75.6 88.41 79.4 89.93 80.12 92.72C80.53 94.29 79.97 94.83 77.44 95.35L70.26 96.76L70.24 96.64L73.7 95.72C75.65 95.2 75.6 94.51 75.36 93.33C74.9 91.07 72.5 89.97 70.92 90.47C69.25 90.99 68.85 92.79 69.3 94.97C70.06 98.7 73.24 103.32 76.57 103.43C79.57 103.55 81.34 101.6 82.23 99.79L82.69 99.94C81.48 102.73 79.46 104.67 75.13 105.34C70.26 106.09 65.93 103.79 64.95 99L64.94 99.01Z" fill="var(--fill-0, white)"/>
<path id="Vector_24" d="M96.2105 101.31L95.7305 85.4195L100.8 85.2695L100.88 88.0895C102.06 86.3095 103.75 84.8495 106.24 84.7795C108.97 84.6995 110.26 85.6795 110.86 87.6395C112.04 85.9495 113.68 84.5495 116.11 84.4795C120.04 84.3595 121 86.4295 121.12 90.4795L121.42 100.55L116.05 100.71L115.76 90.9395C115.68 88.2695 115.51 86.7795 114.13 86.6095C112.93 86.4695 112.06 87.5395 111.1 88.7395C111.18 89.3695 111.23 90.0295 111.25 90.7795L111.55 100.86L106.18 101.02L105.89 91.2395C105.81 88.5695 105.64 87.0795 104.26 86.9095C103.05 86.7695 102.19 87.8395 101.2 89.0695L101.56 101.15L96.1905 101.31H96.2105Z" fill="var(--fill-0, white)"/>
<path id="Vector_25" d="M124.45 92.9997C124.98 87.9897 129.34 85.2497 134.2 85.7597C139.06 86.2697 142.79 89.8597 142.26 94.8697C141.73 99.8797 137.34 102.65 132.48 102.13C127.62 101.62 123.93 97.9997 124.45 92.9897V92.9997ZM136.8 97.1597C137.23 93.0397 135.76 86.9797 132.72 86.6597C130.81 86.4597 130.1 88.3397 129.9 90.2497C129.47 94.3697 131.34 100.87 134.15 101.16C135.7 101.32 136.56 99.4797 136.8 97.1597Z" fill="var(--fill-0, white)"/>
<path id="Vector_26" d="M144.69 95.2904C145.69 90.3504 150.27 88.0004 155.09 88.9804C158.65 89.7004 161.55 92.5904 161.13 95.4404C160.9 97.0504 160.17 97.3304 157.64 96.8104L150.48 95.3004L150.5 95.1804L154.04 95.6804C156.03 95.9604 156.26 95.3004 156.5 94.1304C156.96 91.8704 155.18 89.9104 153.53 89.7604C151.79 89.5904 150.72 91.0904 150.28 93.2604C149.52 96.9904 150.64 102.49 153.66 103.9C156.37 105.18 158.77 104.08 160.29 102.77L160.65 103.09C158.45 105.18 155.83 106.18 151.58 105.11C146.81 103.9 143.72 100.09 144.69 95.2904Z" fill="var(--fill-0, white)"/>
<path id="Vector_27" d="M163.87 102.69L166.76 91.9405L164.47 91.3205L164.63 90.7405L166.92 91.3505L167.69 88.4805L172.88 89.8705L172.11 92.7405L174.6 93.4105L174.44 93.9905L171.95 93.3205L169.06 104.07C168.56 105.92 168.13 107.55 169.75 107.98C170.47 108.18 171.12 108.19 171.99 107.87L172.07 108.17C170.8 108.95 168.7 109.25 166.7 108.72C163.14 107.76 162.96 106.1 163.88 102.68L163.87 102.69Z" fill="var(--fill-0, white)"/>
<path id="Vector_28" d="M183.64 113.49L188.77 98.4403L193.85 100.17L188.72 115.22L183.64 113.49ZM190.04 94.2402C190.55 92.7402 192.11 91.9702 193.65 92.4902C195.13 92.9902 195.89 94.5502 195.38 96.0602C194.87 97.5702 193.31 98.3303 191.83 97.8303C190.3 97.3103 189.53 95.7502 190.04 94.2402Z" fill="var(--fill-0, white)"/>
<path id="Vector_29" d="M194.08 108.6C195.87 103.89 200.77 102.32 205.37 104.07C208.76 105.36 211.16 108.68 210.27 111.43C209.78 112.98 209.01 113.13 206.6 112.21L199.78 109.55L199.82 109.44L203.23 110.52C205.15 111.12 205.48 110.52 205.91 109.39C206.73 107.23 205.3 105.02 203.69 104.6C202 104.15 200.7 105.45 199.91 107.53C198.55 111.09 198.76 116.69 201.51 118.57C203.97 120.28 206.52 119.58 208.23 118.53L208.54 118.9C206.03 120.61 203.28 121.16 199.26 119.41C194.75 117.43 192.33 113.17 194.07 108.6H194.08Z" fill="var(--fill-0, white)"/>
<path id="Vector_30" d="M211.84 118.91L216.13 108.64L213.94 107.73L214.17 107.18L216.36 108.09L217.5 105.35L222.46 107.42L221.31 110.16L223.69 111.16L223.46 111.71L221.08 110.71L216.79 120.98C216.05 122.75 215.4 124.3 216.95 124.95C217.64 125.24 218.28 125.34 219.18 125.13L219.21 125.44C217.85 126.04 215.73 126.07 213.82 125.27C210.41 123.85 210.46 122.18 211.83 118.91H211.84Z" fill="var(--fill-0, white)"/>
<path id="Vector_31" d="M220.21 125.52L224.5 124.38C224.95 126.68 226.32 129.07 228.05 130.1C229.81 131.15 231.3 131.12 231.76 130.11C233.26 126.74 222.26 122.85 224.9 116.93C226.16 114.11 229.75 114 232.92 115.52C235.47 116.72 237.32 118.47 238.41 120.37L234.85 121.51C234.51 119.26 232.82 116.79 231.18 115.97C229.6 115.17 228.14 115.34 227.77 116.55C227.04 119.21 237.37 123.96 235.04 129.19C233.58 132.45 229.82 132.35 226.2 130.6C223.58 129.33 221.5 127.52 220.22 125.53L220.21 125.52Z" fill="var(--fill-0, white)"/>
<path id="Vector_32" d="M250.74 140.65L250.29 141.57L245.47 139.2L255.64 118.46L260.46 120.83L256.27 129.37C257.99 128.38 259.87 128.5 261.38 129.04C266.32 130.83 266.89 136.19 264.83 140.19C262.01 145.66 257.02 145.08 253.96 143.68C252.57 143.03 251.4 141.96 250.73 140.66L250.74 140.65ZM259.54 139.39C261.16 136.08 261.43 131.53 258.75 130.11C258.01 129.71 256.95 129.63 255.77 130.39L252.37 137.31C251.26 140.04 252.75 142.11 254.14 142.76C256.24 143.72 258.29 141.92 259.54 139.39Z" fill="var(--fill-0, white)"/>
<path id="Vector_33" d="M264.38 148.36L270.96 133.88L275.85 136.1L269.27 150.58L264.38 148.36ZM272.64 129.83C273.3 128.38 274.93 127.77 276.4 128.44C277.82 129.09 278.43 130.71 277.77 132.16C277.11 133.61 275.48 134.22 274.06 133.57C272.58 132.9 271.97 131.27 272.63 129.82L272.64 129.83Z" fill="var(--fill-0, white)"/>
<path id="Vector_34" d="M265.26 158.12C267.34 158.82 269.09 158.48 270.27 157.32C270.97 156.67 271.73 155.2 273 152.22L279.25 137.6L284.19 139.71L277.94 154.33C275.91 159.08 274.95 159.87 273.71 160.32C271.61 161.12 268.09 159.81 265.13 158.41L265.26 158.11V158.12ZM280.69 133.49C281.31 132.03 282.93 131.38 284.42 132.02C285.85 132.63 286.5 134.25 285.88 135.71C285.26 137.17 283.64 137.82 282.21 137.21C280.72 136.57 280.07 134.96 280.7 133.5L280.69 133.49Z" fill="var(--fill-0, white)"/>
<path id="Vector_35" d="M283.98 147.99C286.29 142.29 291.35 142.33 294.49 143.53C295.92 144.08 297.19 145.04 297.98 146.25L300.91 138.6L305.92 140.52L297.66 162.09L292.65 160.17L293.49 157.98C291.86 159.12 289.98 159.17 288.43 158.77C283.35 157.44 282.29 152.15 283.99 147.98L283.98 147.99ZM293.89 156.93L296.65 149.73C297.51 146.91 295.82 145.01 294.38 144.49C292.2 143.72 290.32 145.7 289.31 148.33C288 151.75 288.15 156.3 290.95 157.47C291.72 157.8 292.79 157.79 293.89 156.93Z" fill="var(--fill-0, white)"/>
<path id="Vector_36" d="M301.9 163.53L306.74 148.38L311.57 149.92L310.69 152.66C313.15 151.08 316.02 150.96 318.11 151.63C319.27 152.03 320.21 152.65 320.69 153.43L317.99 156.06C316.04 153.8 313.68 151.41 310.69 153.66L307.02 165.15L301.9 163.51V163.53Z" fill="var(--fill-0, white)"/>
<path id="Vector_37" d="M317.53 164.9C318.18 161.72 321.64 161.54 325.01 161.46C327.33 161.39 329.63 161.37 330.95 160.45C331.53 158.59 332.25 156.91 330.64 156.21C329.1 155.56 326.27 156.43 321.76 159.18L320.81 155.49C324.68 153.87 328.02 154.5 330.28 155.09C333.68 155.98 337.05 158.26 336.01 162.21L333.28 172.63L328.37 171.34L329.25 167.97C326.47 169.82 323.1 170.26 320.86 169.68C318.22 168.99 317.07 167.1 317.52 164.9H317.53ZM329.23 166.91L330.58 161.77C328.77 162.63 326.64 162.38 325 162.6C323.62 162.8 322.89 163.32 322.69 164.2C322.35 165.72 323.37 166.92 325.35 167.44C326.57 167.76 328.02 167.67 329.24 166.91H329.23Z" fill="var(--fill-0, white)"/>
<path id="Vector_38" d="M336.74 181.88C335.74 180.87 335.41 179.71 335.61 178.67C335.89 177.2 337.26 175.93 339.24 175.6L339.29 175.64C338.29 176.89 338.55 178.28 339.44 179.52C340.75 181.32 343.45 182.87 345.72 183.3C347.16 183.57 348.58 183.53 349.61 183.09C350.44 182.73 351.02 182.1 351.19 181.19C351.51 179.48 350.23 177.68 346.63 177.03C345.19 176.76 343.76 176.52 342.32 176.25C336.6 175.2 337.37 172.54 340.69 168.86C339.15 167.47 338.51 165.55 338.88 163.57C339.58 159.88 342.87 158.28 347.5 158.97C350.11 159.37 353.92 158.14 355.67 157.4L355.23 160.71L349.86 159.7C352.9 161.04 354.45 163.68 353.93 166.42C353.23 170.1 349.82 171.87 345.22 171C343.6 170.69 342.27 170.11 341.23 169.33C338.07 172.79 340.43 173.58 341.85 173.51C343.14 173.45 344.41 173.35 345.71 173.29C347.56 173.18 349.23 173.41 350.54 173.93C352.52 174.76 353.72 176.33 353.56 178.81C353.43 180.8 352.24 182.56 350.23 183.65C349.01 184.3 347.46 184.72 345.65 184.77C342.68 184.82 338.54 183.76 336.73 181.89L336.74 181.88ZM349.45 168.25C350.02 165.21 348.6 159.97 345.43 159.61C344.35 159.5 343.78 160.25 343.56 161.42C343.01 164.34 344.83 169.87 347.4 170.36C348.49 170.57 349.19 169.63 349.45 168.24V168.25Z" fill="var(--fill-0, white)"/>
<path id="Vector_39" d="M356.54 169.02C357.1 164.01 361.46 161.27 366.35 161.82C369.96 162.23 373.1 164.85 372.93 167.72C372.84 169.34 372.14 169.68 369.57 169.39L362.3 168.51V168.39L365.88 168.58C367.89 168.69 368.06 168.01 368.19 166.82C368.45 164.52 366.51 162.74 364.85 162.73C363.1 162.71 362.17 164.3 361.92 166.51C361.49 170.3 363.09 175.67 366.23 176.81C369.04 177.85 371.33 176.54 372.73 175.1L373.12 175.39C371.11 177.67 368.59 178.9 364.26 178.2C359.4 177.41 355.99 173.89 356.54 169.03V169.02Z" fill="var(--fill-0, white)"/>
<path id="Vector_40" d="M376.4 179.1L376.74 163.2L381.81 163.31L381.75 166.16C383.2 164.45 385.72 163.06 388.39 163.12C392.32 163.2 393.23 165.32 393.09 169.37L392.88 179.45L387.51 179.33L387.72 169.55C387.78 166.88 387.57 165.19 385.74 165.13C384.54 165.07 383.08 165.94 382.04 167.12L381.78 179.21L376.41 179.09L376.4 179.1Z" fill="var(--fill-0, white)"/>
<path id="Vector_41" d="M397.93 177.68C397.87 176.66 398.7 175.77 399.71 175.72C400.73 175.66 401.64 176.45 401.7 177.47C401.76 178.52 400.97 179.4 399.92 179.46C398.87 179.52 397.99 178.72 397.93 177.68Z" fill="var(--fill-0, white)"/>
</g>
<defs>
<clipPath id="clip0_2160_286">
<rect width="403.98" height="184.75" fill="white"/>
</clipPath>
</defs>
</svg>
