<svg preserveAspectRatio="none" width="100%" height="100%" overflow="visible" style="display: block;" viewBox="0 0 399 208" fill="none" xmlns="http://www.w3.org/2000/svg">
<g id="Laag_1" clip-path="url(#clip0_2160_241)">
<path id="Vector" d="M1.28431 15.9657L0 1.82065L5.46049 1.32172L6.81469 16.2545C7.269 21.235 10.388 24.4649 14.8088 23.3533C17.9017 22.583 20.2868 20.0183 19.7975 14.6439L18.8889 4.59538C18.6792 2.30207 18.2773 1.23419 17.8755 0.192568L20.0072 0C19.7975 1.09414 19.5966 2.22329 19.7975 4.5166L20.7324 14.784C21.1954 19.8871 19.0637 23.8347 13.3323 24.7013C6.20311 25.7779 1.87841 22.513 1.29304 15.9744L1.28431 15.9657Z" fill="var(--fill-0, #FFFAF2)"/>
<path id="Vector_2" d="M24.9959 23.7822L25.1969 7.52767L30.6748 7.59769L30.4739 23.8522L24.9959 23.7822ZM25.092 3.05483C25.1095 1.42676 26.3851 0.183815 28.0363 0.210074C29.6264 0.227581 30.867 1.50553 30.8496 3.12486C30.8321 4.75294 29.5565 5.99588 27.9664 5.96962C26.3152 5.95211 25.0746 4.67416 25.092 3.05483Z" fill="var(--fill-0, #FFFAF2)"/>
<path id="Vector_3" d="M35.1131 19.1518L36.0654 7.80777L33.6541 7.60645L33.7065 6.99373L36.1178 7.19505L36.3712 4.16648L41.8317 4.62164L41.5783 7.65021L44.1994 7.86904L44.1469 8.48176L41.5259 8.26293L40.5736 19.607C40.4076 21.5589 40.2678 23.2745 41.9715 23.4146C42.7316 23.4758 43.3868 23.3795 44.1994 22.8981L44.3304 23.187C43.2034 24.2023 41.1415 24.8938 39.0359 24.71C35.2791 24.3949 34.8073 22.7493 35.1044 19.143L35.1131 19.1518Z" fill="var(--fill-0, #FFFAF2)"/>
<path id="Vector_4" d="M45.1429 22.9156L49.0832 20.6836C50.1142 22.8456 52.0799 24.8588 54.0632 25.4365C56.0727 26.023 57.5404 25.6203 57.7326 24.4999C58.353 20.7799 46.4797 19.747 47.5805 13.2172C48.1047 10.1011 51.6256 9.07697 55.1466 9.75971C57.9773 10.2936 60.2488 11.5453 61.8127 13.1472L58.5801 15.1866C57.6628 13.0421 55.365 11.0377 53.539 10.635C51.7742 10.2411 50.3763 10.7838 50.3151 12.088C50.2802 14.9153 61.6991 16.9548 60.7294 22.7318C60.1265 26.3293 56.3784 27.1959 52.3508 26.3906C49.4414 25.8041 46.9165 24.5437 45.1429 22.9069V22.9156Z" fill="var(--fill-0, #FFFAF2)"/>
<path id="Vector_5" d="M63.6125 23.2833L66.2947 12.2281L63.9445 11.6591L64.093 11.0639L66.4432 11.6329L67.1596 8.68308L72.4891 9.97854L71.7727 12.9283L74.3325 13.5498L74.184 14.145L71.6241 13.5235L68.9419 24.5787C68.4789 26.4869 68.077 28.1587 69.737 28.5614C70.4796 28.7452 71.1436 28.7452 72.0173 28.3863L72.1046 28.6927C70.8291 29.5155 68.6973 29.8831 66.6442 29.3842C62.9834 28.4914 62.765 26.802 63.6212 23.2833H63.6125Z" fill="var(--fill-0, #FFFAF2)"/>
<path id="Vector_6" d="M75.1276 22.7056C76.6478 17.7863 81.5404 15.8606 86.3369 17.3487C89.8753 18.4515 92.5312 21.6814 91.8061 24.5349C91.4042 26.1455 90.6354 26.3556 88.1192 25.5766L80.9987 23.3008L81.0336 23.187L84.5808 24.0623C86.5727 24.5525 86.8698 23.9047 87.2367 22.7318C87.9357 20.4735 86.3281 18.3027 84.6681 17.9789C82.9208 17.6288 81.6802 19.038 81.0074 21.2088C79.8542 24.9288 80.4308 30.6359 83.3576 32.3777C85.9787 33.962 88.5298 33.0867 90.2073 31.9051L90.548 32.2639C88.1017 34.1721 85.3321 34.9161 81.1297 33.3843C76.4031 31.66 73.6598 27.4672 75.145 22.6968L75.1276 22.7056Z" fill="var(--fill-0, #FFFAF2)"/>
<path id="Vector_7" d="M91.6488 36.553L99.4246 14.9065L104.789 16.1932L96.8035 38.4174L91.6488 36.5617V36.553Z" fill="var(--fill-0, #FFFAF2)"/>
<path id="Vector_8" d="M100.412 39.7741L108.738 18.3378L114.067 19.7558L105.514 41.7611L100.403 39.7741H100.412Z" fill="var(--fill-0, #FFFAF2)"/>
<path id="Vector_9" d="M111.272 35.24C113.29 30.5046 118.348 29.0953 122.97 31.0735C126.378 32.5353 128.684 36.019 127.671 38.785C127.103 40.3431 126.316 40.4743 123.896 39.4415L117.047 36.4479L117.099 36.3341L120.533 37.5683C122.463 38.2598 122.83 37.6471 123.311 36.5179C124.237 34.3472 122.865 32.0276 121.24 31.5287C119.537 31.0035 118.156 32.2814 117.265 34.3647C115.736 37.9447 115.727 43.678 118.453 45.7087C120.9 47.5556 123.521 46.9429 125.312 45.945L125.609 46.3389C122.979 47.9845 120.148 48.4397 116.129 46.4877C111.612 44.2819 109.315 39.8354 111.272 35.24Z" fill="var(--fill-0, #FFFAF2)"/>
<path id="Vector_10" d="M126.395 50.6104L133.28 35.8877L137.962 38.0847L136.731 40.7282C138.784 39.7303 141.711 39.4765 144.183 40.6319C147.818 42.3388 147.791 44.6933 145.983 48.4222L141.623 57.753L136.661 55.4246L140.889 46.3652C142.043 43.8881 142.549 42.2337 140.872 41.4109C139.78 40.8595 138.059 41.0696 136.591 41.7435L131.357 52.9388L126.395 50.6104Z" fill="var(--fill-0, #FFFAF2)"/>
<path id="Vector_11" d="M160.495 66.8737L160.757 49.2012L166.104 51.582L165.842 65.3944L173.172 58.6896C174.133 57.8055 174.709 56.8864 175.085 55.5822L177.182 56.5188C176.011 57.3416 175.024 58.2081 174.01 59.136L163.937 68.4143L160.495 66.8825V66.8737Z" fill="var(--fill-0, #FFFAF2)"/>
<path id="Vector_12" d="M174.718 64.2915C176.535 59.4686 181.55 57.893 186.216 59.6612C190.881 61.4293 193.633 65.9459 191.816 70.7688C189.999 75.5918 184.949 77.1849 180.275 75.4167C175.601 73.6486 172.901 69.1145 174.718 64.2915ZM185.831 71.6179C187.325 67.6615 187.439 61.2805 184.521 60.1688C182.686 59.4773 181.498 61.1579 180.808 62.9873C179.314 66.9437 179.488 73.8674 182.179 74.8828C183.673 75.443 184.993 73.8499 185.84 71.6091L185.831 71.6179Z" fill="var(--fill-0, #FFFAF2)"/>
<path id="Vector_13" d="M194.245 71.6004C195.73 66.6636 200.605 64.7117 205.419 66.1647C208.966 67.2413 211.64 70.4537 210.941 73.316C210.548 74.9266 209.779 75.1454 207.263 74.3839L200.125 72.1606L200.16 72.0468L203.707 72.8958C205.707 73.3685 205.996 72.7208 206.354 71.5479C207.035 69.2896 205.41 67.1275 203.75 66.8212C201.994 66.4798 200.771 67.9066 200.116 70.0773C198.989 73.8062 199.609 79.5044 202.545 81.2288C205.175 82.7956 207.717 81.894 209.386 80.7036L209.726 81.0625C207.289 82.9882 204.537 83.7584 200.317 82.2529C195.582 80.5636 192.803 76.3883 194.254 71.6004H194.245Z" fill="var(--fill-0, #FFFAF2)"/>
<path id="Vector_14" d="M211.902 85.1764L217.362 62.8298L222.832 63.5388L217.223 86.4807L211.902 85.1764Z" fill="var(--fill-0, #FFFAF2)"/>
<path id="Vector_15" d="M222.893 82.7781L225.086 71.6179L222.709 71.1452L222.832 70.5413L225.208 71.0139L225.793 68.0379L231.166 69.097L230.581 72.073L233.167 72.5807L233.054 73.1847L230.468 72.677L228.275 83.8372C227.899 85.7629 227.567 87.4435 229.244 87.7761C229.996 87.9249 230.66 87.8987 231.516 87.5048L231.612 87.8024C230.38 88.6864 228.257 89.1416 226.186 88.7302C222.491 88.0037 222.203 86.3143 222.901 82.7693L222.893 82.7781Z" fill="var(--fill-0, #FFFAF2)"/>
<path id="Vector_16" d="M252.353 91.9864L246.473 75.3205L252.309 75.6881L256.853 88.7302L261.396 79.8896C261.99 78.7254 262.208 77.6663 262.112 76.3096L264.401 76.4584C263.589 77.64 262.968 78.7954 262.339 80.0121L256.11 92.2227L252.353 91.9864Z" fill="var(--fill-0, #FFFAF2)"/>
<path id="Vector_17" d="M265.091 84.5987C264.838 79.4519 268.778 75.9769 273.793 75.7318C277.498 75.548 281.088 77.6838 281.385 80.6161C281.56 82.2617 280.905 82.7256 278.275 82.8569L270.814 83.1545V83.0319L274.44 82.6381C276.484 82.4192 276.545 81.7102 276.484 80.4848C276.371 78.1214 274.125 76.6334 272.448 76.9048C270.683 77.1761 270.001 78.9267 270.115 81.1938C270.298 85.0889 272.788 90.2445 276.135 90.8835C279.14 91.4787 281.228 89.7718 282.408 88.0912L282.844 88.3188C281.193 90.9447 278.852 92.5991 274.379 92.5991C269.355 92.5991 265.345 89.5968 265.1 84.6075L265.091 84.5987Z" fill="var(--fill-0, #FFFAF2)"/>
<path id="Vector_18" d="M284.033 70.6551C283.779 69.0532 284.819 67.609 286.453 67.3464C288.025 67.0925 289.458 68.1429 289.72 69.7447C289.974 71.3465 288.934 72.7908 287.361 73.0446C285.728 73.3072 284.295 72.2569 284.033 70.6551ZM287.431 91.1023L284.88 75.0491L290.288 74.1826L292.839 90.2357L287.423 91.1023H287.431Z" fill="var(--fill-0, #FFFAF2)"/>
<path id="Vector_19" d="M297.915 89.2204L292.324 66.9087L297.487 64.9743L303.227 87.8812L297.915 89.2204Z" fill="var(--fill-0, #FFFAF2)"/>
<path id="Vector_20" d="M300.79 66.9963C300.231 65.4732 300.973 63.8539 302.52 63.2849C304.014 62.7335 305.621 63.4775 306.189 65.0005C306.748 66.5236 306.006 68.1429 304.512 68.6944C302.957 69.2721 301.349 68.528 300.79 66.9963ZM308.111 86.3931L302.485 71.1452L307.622 69.2458L313.249 84.4937L308.111 86.3931Z" fill="var(--fill-0, #FFFAF2)"/>
<path id="Vector_21" d="M325.908 88.135C324.458 88.1613 323.366 87.5923 322.737 86.7258C321.837 85.4828 321.863 83.5746 323.016 81.8765H323.086C323.305 83.4871 324.519 84.2749 326.065 84.4762C328.319 84.7738 331.36 83.8547 333.273 82.4717C334.488 81.5964 335.449 80.5198 335.842 79.4432C336.156 78.5679 336.095 77.7013 335.545 76.931C334.505 75.4868 332.277 75.1717 329.263 77.3862C328.049 78.2703 326.878 79.1543 325.663 80.0384C320.867 83.5484 319.443 81.0975 319.05 76.047C316.935 76.2133 315.066 75.338 313.86 73.6749C311.615 70.5675 312.742 66.9963 316.507 64.0377C318.639 62.3834 320.395 58.6896 321.077 56.8689L323.217 59.5211L318.7 62.7948C321.828 61.473 324.868 62.1821 326.537 64.5016C328.783 67.609 327.69 71.3903 323.82 74.1913C322.457 75.1804 321.094 75.7494 319.784 75.9769C320.133 80.7561 322.37 79.557 323.313 78.4541C324.178 77.4475 324.999 76.4409 325.856 75.4342C327.079 73.9812 328.407 72.9046 329.717 72.3006C331.727 71.4166 333.728 71.6266 335.449 73.4911C336.829 74.9878 337.301 77.1061 336.698 79.3556C336.322 80.7211 335.545 82.1566 334.313 83.5396C332.268 85.7804 328.582 88.1087 325.926 88.135H325.908ZM324.729 69.1233C322.885 66.5674 318.001 63.9327 315.511 66.0334C314.673 66.7512 314.83 67.7053 315.546 68.6944C317.32 71.154 322.702 73.6924 324.86 72.1256C325.777 71.4603 325.567 70.2874 324.729 69.1145V69.1233Z" fill="var(--fill-0, #FFFAF2)"/>
<path id="Vector_22" d="M330.643 63.9327C327.044 60.2564 327.682 55.0308 331.264 51.512C333.911 48.9123 338.009 48.1071 340.175 50.1028C341.398 51.2232 341.215 52.0022 339.337 53.8491L333.963 59.0484L333.876 58.9609L336.331 56.2474C337.711 54.7244 337.283 54.1554 336.427 53.2801C334.776 51.5908 332.111 51.9759 331.037 53.2889C329.901 54.6631 330.547 56.4313 332.137 58.0506C334.863 60.8341 340.14 63.0311 343.058 61.2805C345.697 59.7224 346.134 57.0615 345.889 55.0133L346.37 54.8907C346.876 57.9543 346.221 60.7465 342.884 63.7313C339.127 67.075 334.138 67.5039 330.652 63.9327H330.643Z" fill="var(--fill-0, #FFFAF2)"/>
<path id="Vector_23" d="M350.633 55.1971L339.109 43.748L342.753 40.063L344.841 42.1374C344.544 39.1701 345.767 36.4917 347.339 34.8986C348.248 34.0233 349.235 33.4631 350.17 33.3931L351.315 37.0781C348.353 37.8047 345.085 38.8375 345.749 42.6101L354.486 51.2932L350.624 55.1971H350.633Z" fill="var(--fill-0, #FFFAF2)"/>
<path id="Vector_24" d="M366.237 45.8225C366.167 44.2032 365.599 42.3213 364.429 42.4526C363.922 42.5138 363.153 42.6451 362.428 41.7698C361.738 40.947 361.851 39.7391 362.672 39.0476C363.564 38.3036 364.726 38.4961 365.547 39.4852C366.884 41.0871 366.683 43.7305 366.455 45.84L366.237 45.8225Z" fill="var(--fill-0, #FFFAF2)"/>
<path id="Vector_25" d="M41.3424 131.489L38.634 120.434L36.2838 121.012L36.1353 120.416L38.4855 119.839L37.7604 116.889L43.0811 115.585L43.8062 118.535L46.3661 117.904L46.5146 118.5L43.9547 119.13L46.6631 130.185C47.1262 132.093 47.5368 133.756 49.2055 133.354C49.9482 133.17 50.5335 132.872 51.1451 132.146L51.3635 132.373C50.6122 133.695 48.8823 135.008 46.8291 135.507C43.1684 136.408 42.1986 134.999 41.3337 131.489H41.3424Z" fill="var(--fill-0, #FFFAF2)"/>
<path id="Vector_26" d="M51.3024 125.59C50.4025 120.513 53.9147 116.591 58.8247 115.716C63.7348 114.841 68.409 117.318 69.3001 122.395C70.1913 127.471 66.6616 131.428 61.7516 132.303C56.8415 133.178 52.1935 130.658 51.3024 125.59ZM64.5998 126.193C63.8659 122.027 60.7119 116.478 57.6365 117.02C55.7057 117.362 55.5397 119.419 55.8804 121.353C56.6143 125.519 60.2925 131.384 63.132 130.876C64.6959 130.596 65.0191 128.548 64.6085 126.193H64.5998Z" fill="var(--fill-0, #FFFAF2)"/>
<path id="Vector_27" d="M72.891 125.414L71.9299 114.079L69.5186 114.281L69.4661 113.668L71.8775 113.458L71.6241 110.429L77.0846 109.965L77.338 112.994L79.959 112.766L80.0114 113.379L77.3904 113.607L78.3514 124.942C78.5174 126.894 78.666 128.609 80.3696 128.461C81.1297 128.391 81.7588 128.189 82.4752 127.568L82.6499 127.83C81.7064 129.021 79.793 130.045 77.6962 130.22C73.9481 130.544 73.1967 129.003 72.891 125.397V125.414Z" fill="var(--fill-0, #FFFAF2)"/>
<path id="Vector_28" d="M95.0998 129.231L97.1355 105.702L102.596 106.175L101.74 116.049C103.339 114.587 105.829 113.51 108.362 113.729C112.355 114.079 113.15 116.302 112.731 120.416L111.848 130.684L106.388 130.211L107.244 120.25C107.48 117.528 107.384 115.795 105.523 115.602C104.308 115.462 102.762 116.259 101.617 117.388L100.552 129.703L95.0911 129.231H95.0998Z" fill="var(--fill-0, #FFFAF2)"/>
<path id="Vector_29" d="M115.754 123.06C116.767 118.009 121.441 115.602 126.36 116.591C129.995 117.327 132.965 120.268 132.537 123.191C132.301 124.837 131.558 125.126 128.972 124.6L121.66 123.069L121.686 122.946L125.303 123.454C127.339 123.743 127.566 123.069 127.81 121.861C128.273 119.55 126.456 117.554 124.77 117.397C122.996 117.23 121.904 118.762 121.459 120.985C120.69 124.811 121.843 130.421 124.927 131.857C127.697 133.161 130.143 132.032 131.689 130.684L132.065 131.008C129.82 133.152 127.146 134.176 122.804 133.082C117.929 131.848 114.775 127.962 115.762 123.051L115.754 123.06Z" fill="var(--fill-0, #FFFAF2)"/>
<path id="Vector_30" d="M135.315 130.623L138.338 119.655L136.005 119.007L136.171 118.412L138.504 119.06L139.308 116.136L144.585 117.598L143.781 120.521L146.315 121.222L146.149 121.817L143.615 121.117L140.592 132.084C140.068 133.975 139.614 135.629 141.265 136.084C141.999 136.286 142.663 136.312 143.545 135.988L143.615 136.295C142.322 137.082 140.173 137.38 138.137 136.811C134.511 135.804 134.345 134.106 135.307 130.614L135.315 130.623Z" fill="var(--fill-0, #FFFAF2)"/>
<path id="Vector_31" d="M155.305 141.765L161.01 126.544L165.85 128.364L164.828 131.095C166.803 129.94 169.694 129.45 172.246 130.412C176.002 131.83 176.16 134.185 174.648 138.036L171.031 147.682L165.903 145.748L169.415 136.382C170.376 133.826 170.752 132.128 169.013 131.445C167.877 130.981 166.182 131.332 164.776 132.111L160.433 143.682L155.305 141.748V141.765Z" fill="var(--fill-0, #FFFAF2)"/>
<path id="Vector_32" d="M174.299 149.1L180.546 134.098L185.604 136.207L179.357 151.21L174.299 149.1ZM182.127 129.905C182.747 128.408 184.39 127.725 185.919 128.364C187.386 128.977 188.068 130.623 187.439 132.119C186.81 133.616 185.176 134.299 183.7 133.686C182.171 133.047 181.498 131.402 182.118 129.905H182.127Z" fill="var(--fill-0, #FFFAF2)"/>
<path id="Vector_33" d="M185.246 144.829C187.36 140.128 192.436 138.824 197.014 140.89C200.396 142.413 202.632 145.94 201.566 148.689C200.972 150.238 200.186 150.352 197.783 149.267L190.995 146.142L191.047 146.028L194.455 147.332C196.377 148.059 196.744 147.455 197.25 146.343C198.22 144.19 196.892 141.844 195.276 141.319C193.581 140.759 192.183 142.01 191.248 144.076C189.649 147.63 189.527 153.354 192.218 155.446C194.621 157.337 197.259 156.777 199.068 155.814L199.356 156.217C196.691 157.81 193.86 158.212 189.876 156.182C185.403 153.897 183.184 149.398 185.237 144.838L185.246 144.829Z" fill="var(--fill-0, #FFFAF2)"/>
<path id="Vector_34" d="M202.754 156.4L207.673 146.142L205.489 145.091L205.751 144.54L207.935 145.59L209.246 142.851L214.182 145.223L212.872 147.962L215.248 149.1L214.986 149.652L212.61 148.514L207.691 158.773C206.843 160.541 206.101 162.09 207.647 162.834C208.337 163.167 208.984 163.307 209.91 163.14L209.927 163.455C208.512 163.998 206.345 163.911 204.441 162.992C201.051 161.355 201.182 159.657 202.746 156.392L202.754 156.4Z" fill="var(--fill-0, #FFFAF2)"/>
<path id="Vector_35" d="M221.512 171.141L227.803 156.155L232.573 158.16L231.455 160.821C233.298 159.665 235.491 159.026 237.833 160.015C240.401 161.101 241.179 162.554 240.908 164.637C242.716 163.569 244.831 162.965 247.12 163.928C250.815 165.486 250.833 167.823 249.234 171.64L245.25 181.145L240.2 179.018L244.071 169.801C245.128 167.281 245.608 165.828 244.394 165.084C243.337 164.436 242.079 165.075 240.681 165.784C240.489 166.405 240.253 167.035 239.956 167.744L235.972 177.242L230.922 175.115L234.792 165.898C235.849 163.377 236.33 161.924 235.115 161.171C234.058 160.523 232.792 161.162 231.359 161.889L226.58 173.285L221.53 171.158L221.512 171.141Z" fill="var(--fill-0, #FFFAF2)"/>
<path id="Vector_36" d="M251.541 174.677C253.157 169.784 258.076 167.963 262.846 169.539C266.367 170.703 268.953 173.985 268.175 176.83C267.747 178.432 266.97 178.625 264.471 177.802L257.403 175.395L257.438 175.281L260.968 176.226C262.951 176.76 263.257 176.112 263.65 174.948C264.392 172.707 262.829 170.51 261.169 170.152C259.421 169.766 258.163 171.158 257.447 173.311C256.224 177.005 256.695 182.721 259.587 184.515C262.173 186.152 264.742 185.321 266.437 184.165L266.769 184.533C264.288 186.389 261.509 187.089 257.333 185.478C252.641 183.666 249.977 179.421 251.549 174.677H251.541Z" fill="var(--fill-0, #FFFAF2)"/>
<path id="Vector_37" d="M269.958 180.725C271.233 175.727 276.012 173.565 280.879 174.817C284.47 175.736 287.283 178.826 286.706 181.714C286.383 183.343 285.632 183.588 283.08 182.94L275.855 181.032L275.89 180.909L279.472 181.601C281.49 181.986 281.752 181.329 282.058 180.139C282.644 177.846 280.931 175.762 279.254 175.526C277.489 175.263 276.318 176.743 275.759 178.94C274.798 182.712 275.663 188.384 278.668 189.969C281.359 191.413 283.867 190.415 285.483 189.146L285.841 189.487C283.491 191.518 280.774 192.402 276.493 191.089C271.688 189.61 268.735 185.557 269.975 180.717L269.958 180.725Z" fill="var(--fill-0, #FFFAF2)"/>
<path id="Vector_38" d="M288.471 193.645L291.267 177.635L296.36 178.528L295.854 181.426C298.116 179.491 301.008 178.966 303.21 179.351C304.442 179.596 305.473 180.086 306.058 180.813L303.69 183.85C301.401 181.828 298.693 179.736 295.985 182.432L293.862 194.581L288.462 193.636L288.471 193.645Z" fill="var(--fill-0, #FFFAF2)"/>
<path id="Vector_39" d="M319.39 206.354C318.211 205.497 317.687 204.385 317.713 203.308C317.748 201.777 318.91 200.271 320.858 199.606L320.919 199.641C320.124 201.068 320.614 202.424 321.723 203.527C323.339 205.129 326.319 206.232 328.678 206.284C330.18 206.319 331.596 206.039 332.557 205.418C333.334 204.91 333.806 204.184 333.832 203.238C333.867 201.461 332.286 199.86 328.547 199.807C327.044 199.772 325.576 199.772 324.073 199.737C318.132 199.641 318.473 196.822 321.199 192.56C319.417 191.413 318.447 189.583 318.491 187.526C318.578 183.693 321.618 181.522 326.397 181.443C329.088 181.408 332.714 179.526 334.365 178.485L334.479 181.889L328.905 181.767C332.19 182.607 334.191 185.014 334.129 187.859C334.042 191.693 330.906 194.048 326.127 193.943C324.44 193.907 323.007 193.54 321.828 192.927C319.233 196.954 321.732 197.339 323.147 197.041C324.44 196.761 325.698 196.455 326.991 196.175C328.835 195.754 330.556 195.702 331.954 196.008C334.086 196.516 335.553 197.899 335.807 200.42C336.008 202.451 335.108 204.42 333.273 205.855C332.155 206.722 330.67 207.396 328.852 207.755C325.873 208.306 321.531 207.93 319.39 206.354ZM329.901 190.476C329.971 187.316 327.664 182.266 324.414 182.441C323.313 182.511 322.859 183.36 322.833 184.585C322.763 187.623 325.532 192.901 328.197 192.953C329.333 192.98 329.875 191.912 329.901 190.476Z" fill="var(--fill-0, #FFFAF2)"/>
<path id="Vector_40" d="M337.921 194.608C337.397 191.334 340.63 189.916 343.819 188.621C346.003 187.71 348.187 186.87 349.13 185.505C349.017 183.509 349.096 181.653 347.304 181.566C345.601 181.496 343.216 183.351 339.904 187.614L337.659 184.428C340.769 181.478 344.185 180.874 346.562 180.629C350.126 180.253 354.163 181.216 354.6 185.364L355.744 196.315L350.598 196.857L350.231 193.321C348.239 196.087 345.181 197.733 342.84 197.978C340.07 198.267 338.297 196.884 337.93 194.608H337.921ZM349.803 192.314L349.235 186.914C347.82 188.393 345.688 188.918 344.203 189.724C342.954 190.406 342.447 191.168 342.569 192.087C342.796 193.662 344.203 194.441 346.274 194.231C347.549 194.1 348.903 193.496 349.794 192.323L349.803 192.314Z" fill="var(--fill-0, #FFFAF2)"/>
<path id="Vector_41" d="M360.121 191.991C358.994 188.874 361.904 186.87 364.796 185.006C366.77 183.701 368.762 182.458 369.426 180.944C368.937 179.01 368.675 177.172 366.892 177.417C365.206 177.67 363.205 179.938 360.75 184.752L357.955 182.038C360.453 178.563 363.703 177.32 365.984 176.629C369.417 175.596 373.567 175.78 374.764 179.78L377.936 190.319L372.982 191.815L371.96 188.411C370.527 191.5 367.827 193.697 365.573 194.38C362.908 195.185 360.899 194.161 360.121 191.991ZM371.374 187.5L369.81 182.301C368.692 184.016 366.7 184.936 365.39 186.003C364.289 186.914 363.931 187.754 364.228 188.629C364.743 190.135 366.272 190.634 368.264 190.039C369.496 189.671 370.71 188.822 371.366 187.5H371.374Z" fill="var(--fill-0, #FFFAF2)"/>
<path id="Vector_42" d="M382.304 182.625L376.18 173.04L374.144 174.344L373.812 173.828L375.848 172.524L374.214 169.968L378.827 167.009L380.461 169.565L382.68 168.147L383.012 168.664L380.793 170.082L386.917 179.666C387.974 181.321 388.9 182.765 390.342 181.837C390.988 181.426 391.443 180.944 391.792 180.069L392.072 180.218C391.792 181.714 390.578 183.509 388.795 184.647C385.624 186.677 384.252 185.671 382.304 182.625Z" fill="var(--fill-0, #FFFAF2)"/>
<path id="Vector_43" d="M395.584 177.382C394.92 176.576 395.068 175.351 395.872 174.686C396.676 174.02 397.908 174.125 398.572 174.931C399.253 175.762 399.131 176.97 398.31 177.653C397.48 178.336 396.274 178.213 395.593 177.39L395.584 177.382Z" fill="var(--fill-0, #FFFAF2)"/>
</g>
<defs>
<clipPath id="clip0_2160_241">
<rect width="399" height="208" fill="white"/>
</clipPath>
</defs>
</svg>
