<svg preserveAspectRatio="none" width="100%" height="100%" overflow="visible" style="display: block;" viewBox="0 0 69 66" fill="none" xmlns="http://www.w3.org/2000/svg">
<g id="Laag_1" clip-path="url(#clip0_2039_117)">
<path id="Vector" d="M48.8082 65.9941C54.4808 66.1099 60.8988 64.5736 63.8405 59.2057C65.0685 56.9622 65.5236 54.3194 65.9574 51.7406C68.56 36.2404 70.7839 21.7858 66.9105 6.61479C65.9238 2.74355 64.7844 0.365944 62.7988 0.0397847C60.6086 -0.319905 59.1423 1.92358 58.1923 3.77995C54.6488 10.6964 49.0954 21.4962 47.2564 21.2371C45.0509 20.9262 41.3852 9.65996 39.9617 5.81311C38.8651 2.85329 37.9334 0.573223 35.6118 0.750019C33.2658 0.929864 31.9859 4.67612 31.3597 6.38312C29.2366 12.1717 25.3907 18.954 23.4693 18.7162C21.7312 18.5028 19.1897 12.2387 16.1258 5.88322C14.7206 2.97522 13.4162 0.0763633 10.8411 0.0763633C7.28236 0.0763633 5.87108 10.6537 5.61754 12.2327C3.53728 25.2516 2.73083 31.2383 2.31539 34.6919C1.56698 40.9133 0.989641 45.065 0.241235 51.2864C-0.0428539 53.6396 -0.290286 56.2032 0.809413 58.2424C2.14127 60.7176 4.96383 61.568 7.52369 62.0893C21.1691 64.8723 35.0314 65.7167 48.8082 65.9941Z" fill="var(--fill-0, #EC612C)"/>
</g>
<defs>
<clipPath id="clip0_2039_117">
<rect width="69" height="66" fill="white"/>
</clipPath>
</defs>
</svg>
