<svg preserveAspectRatio="none" width="100%" height="100%" overflow="visible" style="display: block;" viewBox="0 0 70 69" fill="none" xmlns="http://www.w3.org/2000/svg">
<path id="Vector" d="M1.56829 15.9874C5.86268 29.6265 18.8272 39.9773 32.8904 41.0033C34.8467 41.1445 36.9094 41.1006 38.6215 40.1279C40.0425 39.3216 41.1099 37.6963 41.041 36.0993C41.0191 35.5941 40.5308 35.2616 40.0582 35.4153C35.3913 36.9245 30.1454 35.9236 25.7727 33.6206C21.1528 31.1858 17.3499 27.4333 13.7722 23.5898C8.27906 17.6911 2.97053 11.1304 1.15199 3.22374C0.986098 2.49582 0.860894 1.68632 1.22711 1.04312C1.77486 0.0830204 3.08007 -0.0142444 4.17245 0.00144348C16.5705 0.189698 28.9717 0.377953 41.3697 0.566208C43.3228 0.594446 45.4825 0.707399 46.8816 2.09421C48.3496 3.55004 48.4498 5.87499 48.4529 7.95834C48.4623 13.4899 48.4748 19.0214 48.4842 24.553C48.4842 26.0967 49.0288 28.2051 50.647 27.9196C51.5454 27.7627 52.1651 26.9125 52.1996 25.99C52.3028 23.1097 52.4061 20.2294 52.5094 17.346C52.5908 15.0524 52.8287 9.43928 54.0619 7.51281C55.6895 4.96823 58.6505 3.94538 61.6335 4.15874C65.2298 4.41288 68.4506 6.15424 70 8.3223C66.7792 8.49173 63.1828 10.1484 61.1733 12.7808C59.5551 14.9049 59.1263 18.0519 59.3735 20.722C59.7335 24.5718 62.4128 31.0635 64.7384 34.1257C67.4678 37.7183 69.5336 41.9697 69.856 46.4941C70.2755 52.3551 67.6462 58.2318 63.405 62.2259C59.1638 66.22 53.4484 68.4132 47.6829 68.8964C42.34 69.3451 36.8186 68.3505 32.1674 65.6396C24.6021 61.225 20.0855 52.7661 17.9821 44.1691C13.6095 48.9947 7.87528 52.5339 1.64341 54.2596C1.32727 54.3474 0.998618 54.1466 0.936017 53.8203C0.122211 49.6568 0.291232 43.5573 0.563544 42.7666C0.798295 42.0921 1.31162 41.9477 1.49942 41.9069C0.998614 41.7469 0.28497 41.2888 0.131599 40.7774C-0.0217723 40.266 -0.00612677 39.7232 0.00952334 39.1929C0.109684 35.6851 0.122214 32.171 0.313146 28.6664C0.353836 27.9228 0.792029 27.9541 1.12381 27.7627C0.0283027 24.0447 0.0470967 19.5423 1.56829 15.9843V15.9874Z" fill="var(--fill-0, #E0ED6F)"/>
</svg>
