<svg preserveAspectRatio="none" width="100%" height="100%" overflow="visible" style="display: block;" viewBox="0 0 68 67" fill="none" xmlns="http://www.w3.org/2000/svg">
<path id="Vector" d="M67.8416 62.1341C67.5644 61.0887 66.9824 60.1831 66.3822 59.3291C62.9759 54.488 58.5185 50.6284 53.5553 48.0149C50.0759 46.1823 46.3375 44.9637 42.523 44.4288C49.6006 44.3711 56.6783 44.3103 63.759 44.2526C64.6821 44.2435 65.6785 44.2131 66.4188 43.6113C67.2049 42.9732 67.5065 41.8062 67.3938 40.7486C67.281 39.691 66.8149 38.7185 66.303 37.8099C63.0643 32.051 57.7568 27.9027 51.9862 25.3986C47.7055 23.5417 43.1658 22.5358 38.5957 21.9584C41.8283 21.9462 45.0609 21.9371 48.2935 21.928C53.6467 21.9098 58.9969 21.8946 64.3501 21.8763C65.2245 21.8763 66.1903 21.8429 66.8392 21.3141C67.7533 20.5696 67.5857 19.2476 67.2353 18.184C65.648 13.355 61.87 9.24926 57.2572 6.39867C52.6443 3.54504 47.2302 1.87055 41.7339 0.907181C34.4338 -0.375281 26.7529 -0.436061 19.6783 1.62439C12.6037 3.68484 6.19322 8.01846 2.86006 13.9962C1.84243 15.8226 0.185016 22.0131 0.830931 22.1924C2.24768 22.5875 4.37431 22.0739 5.87942 22.0678C10.6263 22.0526 15.3732 22.0374 20.117 22.0222C22.1218 22.0161 24.1265 22.0101 26.1313 22.004C25.1563 22.2623 24.1722 22.6087 23.1668 23.0828C19.8824 24.6266 16.8326 26.7327 13.4933 28.1306C12.174 28.6837 10.806 29.1274 9.56906 29.872C8.30769 30.6317 7.22 31.6802 6.14449 32.7226C4.50532 34.3089 2.83873 35.9257 1.68096 37.9527C0.523182 39.9797 -0.0831244 42.5082 0.578025 44.7844C8.53315 44.7175 16.4883 44.6537 24.4434 44.5869C15.3305 46.7385 6.80868 52.4518 1.30621 60.9702C0.742556 61.8424 0.197173 62.7784 0.0387406 63.842C-0.119692 64.9057 0.206328 66.1304 1.04419 66.6592C1.58347 66.9996 2.23245 67.0026 2.85094 66.9996C23.1364 66.8476 43.4218 66.6987 63.7072 66.5468C65.0539 66.5376 66.5894 66.4313 67.4395 65.2552C68.0519 64.4103 68.1219 63.1886 67.8447 62.1463L67.8416 62.1341Z" fill="var(--fill-0, #BFD1F9)"/>
</svg>
