<svg preserveAspectRatio="none" width="100%" height="100%" overflow="visible" style="display: block;" viewBox="0 0 71 71" fill="none" xmlns="http://www.w3.org/2000/svg">
<g id="_&#195;&#142;&#195;&#147;&#195;&#136;_1" clip-path="url(#clip0_2157_122)">
<path id="Vector" d="M57.5368 41.1716C52.4923 40.3748 46.5874 40.8596 41.5261 41.5417C35.7037 42.3262 22.6675 44.5912 22.6675 44.5912C15.3242 45.5929 10.327 44.1553 11.8127 40.5338C12.2566 39.4511 14.2885 37.8651 15.2373 37.1846C18.0288 35.1857 20.6753 35.0343 24.0145 34.8095C36.7562 33.9546 45.5044 36.7105 60.2108 35.1796C65.3377 34.6459 68.6951 33.4698 70.3242 30.5946C71.3127 28.8496 71.1251 26.4241 70.3624 24.5674C68.3641 19.7026 63.5759 16.8978 58.6396 15.7813C54.5211 14.85 50.2103 14.5105 46.0276 15.0824C40.3912 15.8548 33.3362 18.2436 23.3631 17.1425C19.1591 16.6791 17.5986 15.6024 16.929 15.0151C14.8208 13.1662 16.7566 10.5709 18.883 10.0096C20.6601 9.54007 21.1803 9.62878 22.9711 10.0432C26.8395 10.9364 34.2698 8.36095 35.4306 5.40319C35.9126 4.17512 36.1048 3.34468 34.1493 2.43625C29.6707 0.357866 22.7545 -1.08125 18.375 1.05372C17.234 1.6104 16.5323 2.65036 15.4112 3.2468C13.3259 4.35711 10.3346 7.47239 9.73819 9.32596C8.75126 12.3892 9.23634 15.9435 11.1919 18.4959C13.6844 21.7489 18.0074 22.9647 22.0757 23.4036C33.565 24.6439 50.3628 17.5049 59.8661 23.7645C62.5126 25.508 60.8042 26.7621 59.384 27.1628C57.3858 27.7286 54.7758 27.6078 49.8243 27.6858C42.6122 27.799 39.2624 27.7118 32.0701 27.1597C27.0241 26.7728 21.946 26.1947 16.9198 26.7758C11.8921 27.357 6.81704 29.2381 3.43827 33.0156C0.0594958 36.7931 -1.19439 42.7101 1.35151 47.0948C3.78301 51.2806 8.97091 53.1494 13.8019 53.1556C18.6328 53.1617 23.3189 51.6568 28.0415 50.6352C35.8836 48.9376 40.5773 48.465 48.6009 48.5323C51.2597 48.5553 53.9994 48.644 56.4232 49.739C59.7715 51.2515 62.4074 55.1682 59.7334 58.987C59.0271 59.9948 58.0463 60.7931 56.9373 61.3223C54.0039 62.7186 50.7106 62.3867 47.5835 61.8637C40.9419 60.7549 37.8194 58.9334 31.1442 58.0434C24.469 57.1533 17.1181 57.1686 10.9478 59.8694C5.0491 62.4509 2.89828 66.8509 2.28964 70.6406C4.10335 68.0698 5.41824 66.0663 10.0616 63.8472C12.3497 62.7538 14.9154 62.3011 17.4445 62.1925C23.2624 61.9417 28.9675 63.7127 34.4406 65.7069C39.9138 67.7012 45.3625 69.957 51.1331 70.7415C54.73 71.2309 58.5146 71.1086 61.8171 69.6006C66.314 67.5467 69.4349 63.0275 70.4219 58.1718C71.0122 55.2691 70.8887 52.163 69.6866 49.4576C67.6075 44.7809 62.5843 41.9653 57.5398 41.1701L57.5368 41.1716ZM22.2877 4.27606C23.2121 4.23476 23.8055 4.55593 24.5926 5.10955C24.5926 5.10955 23.9733 5.60812 23.2319 5.82529C22.6858 5.98434 22.0741 6.00422 21.5235 5.87423C20.7791 5.69682 20.2452 5.48577 19.9874 5.27472C20.4526 4.86791 20.8172 4.34488 22.2877 4.27759V4.27606Z" fill="var(--fill-0, #E0ED6F)"/>
</g>
<defs>
<clipPath id="clip0_2157_122">
<rect width="71" height="71" fill="white"/>
</clipPath>
</defs>
</svg>
