<svg preserveAspectRatio="none" width="100%" height="100%" overflow="visible" style="display: block;" viewBox="0 0 28 28" fill="none" xmlns="http://www.w3.org/2000/svg">
<path id="Vector" d="M26.9231 12.9231C25.495 12.9231 24.1254 12.3558 23.1156 11.346C22.1058 10.3361 21.5385 8.96655 21.5385 7.53846C21.5385 7.25284 21.425 6.97892 21.223 6.77696C21.0211 6.575 20.7472 6.46154 20.4615 6.46154C19.0335 6.46154 17.6639 5.89423 16.654 4.88442C15.6442 3.87461 15.0769 2.50501 15.0769 1.07692C15.0769 0.791305 14.9635 0.517386 14.7615 0.315423C14.5595 0.113461 14.2856 0 14 0C11.2311 0 8.52431 0.821086 6.22202 2.35943C3.91973 3.89776 2.12532 6.08427 1.06569 8.64243C0.00606598 11.2006 -0.271181 14.0155 0.269012 16.7313C0.809205 19.447 2.14258 21.9416 4.10051 23.8995C6.05845 25.8574 8.55301 27.1908 11.2687 27.731C13.9845 28.2712 16.7994 27.9939 19.3576 26.9343C21.9157 25.8747 24.1022 24.0803 25.6406 21.778C27.1789 19.4757 28 16.7689 28 14C28 13.7144 27.8865 13.4405 27.6846 13.2385C27.4826 13.0365 27.2087 12.9231 26.9231 12.9231ZM6.93404 10.1648C7.16018 9.93945 7.44802 9.78616 7.76122 9.72428C8.07443 9.66241 8.39894 9.69472 8.69378 9.81715C8.98863 9.93958 9.24059 10.1466 9.41784 10.4122C9.59509 10.6777 9.68969 10.9898 9.68969 11.309C9.68969 11.6283 9.59509 11.9404 9.41784 12.2059C9.24059 12.4714 8.98863 12.6785 8.69378 12.8009C8.39894 12.9233 8.07443 12.9557 7.76122 12.8938C7.44802 12.8319 7.16018 12.6786 6.93404 12.4533C6.78345 12.3032 6.66396 12.1249 6.58242 11.9285C6.50089 11.7322 6.45892 11.5216 6.45892 11.309C6.45892 11.0964 6.50089 10.8859 6.58242 10.6896C6.66396 10.4932 6.78345 10.3149 6.93404 10.1648ZM10.2994 19.9917C10.0733 20.2171 9.78545 20.3704 9.47225 20.4323C9.15905 20.4941 8.83453 20.4618 8.53969 20.3394C8.24484 20.217 7.99288 20.0099 7.81563 19.7444C7.63838 19.4788 7.54378 19.1668 7.54378 18.8475C7.54378 18.5282 7.63838 18.2161 7.81563 17.9506C7.99288 17.6851 8.24484 17.478 8.53969 17.3556C8.83453 17.2332 9.15905 17.2009 9.47225 17.2627C9.78545 17.3246 10.0733 17.4779 10.2994 17.7033C10.4494 17.8535 10.5684 18.0318 10.6494 18.228C10.7305 18.4242 10.7721 18.6344 10.7719 18.8467C10.7716 19.059 10.7295 19.2692 10.648 19.4652C10.5665 19.6612 10.4471 19.8392 10.2967 19.989L10.2994 19.9917ZM13.3956 14.6071C13.1702 14.381 13.0169 14.0931 12.9551 13.7799C12.8932 13.4667 12.9255 13.1422 13.0479 12.8474C13.1704 12.5525 13.3774 12.3006 13.6429 12.1233C13.9085 11.9461 14.2206 11.8515 14.5398 11.8515C14.8591 11.8515 15.1712 11.9461 15.4367 12.1233C15.7022 12.3006 15.9093 12.5525 16.0317 12.8474C16.1541 13.1422 16.1864 13.4667 16.1246 13.7799C16.0627 14.0931 15.9094 14.381 15.684 14.6071C15.5338 14.7575 15.3553 14.8768 15.1589 14.9581C14.9624 15.0394 14.7519 15.0811 14.5393 15.0809C14.3266 15.0806 14.1162 15.0384 13.9199 14.9567C13.7237 14.8749 13.5455 14.7552 13.3956 14.6044V14.6071ZM18.9148 21.0686C18.6887 21.294 18.4008 21.4473 18.0876 21.5092C17.7744 21.571 17.4499 21.5387 17.1551 21.4163C16.8602 21.2939 16.6083 21.0868 16.431 20.8213C16.2538 20.5558 16.1592 20.2437 16.1592 19.9244C16.1592 19.6052 16.2538 19.2931 16.431 19.0275C16.6083 18.762 16.8602 18.555 17.1551 18.4325C17.4499 18.3101 17.7744 18.2778 18.0876 18.3397C18.4008 18.4015 18.6887 18.5548 18.9148 18.7802C19.0648 18.9304 19.1838 19.1087 19.2648 19.3049C19.3459 19.5011 19.3875 19.7113 19.3872 19.9236C19.387 20.1359 19.3449 20.3461 19.2634 20.5421C19.1818 20.7381 19.0625 20.9161 18.9121 21.066L18.9148 21.0686Z" fill="var(--fill-0, #211E1D)"/>
</svg>
