<svg preserveAspectRatio="none" width="100%" height="100%" overflow="visible" style="display: block;" viewBox="0 0 64 66" fill="none" xmlns="http://www.w3.org/2000/svg">
<path id="Vector" d="M55.1276 65.9567C57.7051 66.0815 60.6518 66.0614 62.3819 64.12C63.7414 62.5945 63.8928 60.3564 63.9734 58.3032C64.0866 55.4055 63.9366 51.9616 61.5317 50.3916C59.4366 49.0238 56.7078 49.8052 54.218 49.907C52.2092 49.9887 49.9939 49.4639 48.8098 47.818C46.4685 44.5633 49.4464 39.1364 46.6553 36.2689C43.4893 33.0142 36.9451 37.1779 33.857 33.8458C32.9799 32.8995 32.6616 31.5704 32.3985 30.3C31.4903 25.9098 32.878 25.6732 31.9684 20.2621C31.3007 16.292 26.7724 16.8024 24.9008 17.0533C23.0292 17.3042 20.9186 17.2913 19.5153 16.0095C18.0454 14.6675 17.87 12.4093 18.0228 10.4106C18.1756 8.41193 18.542 6.32148 17.8064 4.46043C16.9703 2.34561 14.8342 0.987816 12.6372 0.504632C10.4417 0.0214481 1.35966 -1.30337 1.0937 4.02743C0.812187 9.65359 0.697601 17.7874 0.919701 23.7333C1.33844 34.9469 1.16302 41.0964 0.17984 52.2742C-0.0521626 54.908 -0.28275 57.7383 1.02156 60.028C2.14762 62.0052 4.27242 63.2311 6.46229 63.7616C12.9357 65.3287 22.8991 64.3896 29.5055 64.7108C38.0471 65.1266 46.5874 65.5409 55.129 65.9567H55.1276Z" fill="var(--fill-0, #EC612C)"/>
</svg>
