<svg preserveAspectRatio="none" width="100%" height="100%" overflow="visible" style="display: block;" viewBox="0 0 72 69" fill="none" xmlns="http://www.w3.org/2000/svg">
<g id="Laag_1" clip-path="url(#clip0_2039_132)">
<path id="Vector" d="M71.8536 34.5212C70.9282 28.1044 62.3965 24.7914 56.2709 26.6252C53.423 27.4769 50.9214 29.3168 48.0377 30.0291C44.6585 30.8657 43.7719 30.402 40.6523 28.844C38.3418 27.6922 35.7596 26.4706 34.4909 24.0488C33.4341 22.0301 35.1327 19.199 35.264 16.9711C35.5954 11.3394 33.1057 5.43477 28.4369 2.24605C25.6875 0.366769 22.162 -0.603183 19.0007 0.406174C14.5557 1.82473 11.9765 6.80483 11.8123 11.5333C11.6511 16.2619 14.2333 19.684 12.4541 21.1753C10.8511 22.5181 8.93758 22.2604 5.98223 23.776C3.02689 25.2915 1.08054 28.4045 0.340206 31.6811C-0.629983 35.9731 0.447674 40.8684 3.67467 43.8085C6.90466 46.7457 14.6333 48.0945 17.8185 45.1058C19.2216 43.7873 20.1888 41.9111 21.9232 41.0957C23.9919 40.1197 25.8607 40.6774 27.9712 41.5534C31.84 43.1599 36.2223 45.6545 39.6105 48.1369C46.2645 53.0109 40.2553 59.7097 48.6616 66.5963C54.5036 71.3825 62.307 68.2392 63.7249 64.0017C66.8952 54.5204 60.0054 50.7497 62.6532 47.173C64.4742 44.7088 73.2149 44.0055 71.8447 34.5212H71.8536Z" fill="var(--fill-0, #F8CD41)"/>
</g>
<defs>
<clipPath id="clip0_2039_132">
<rect width="72" height="69" fill="white"/>
</clipPath>
</defs>
</svg>
