<svg preserveAspectRatio="none" width="100%" height="100%" overflow="visible" style="display: block;" viewBox="0 0 74 70" fill="none" xmlns="http://www.w3.org/2000/svg">
<path id="Vector" d="M73.7865 9.97301C74.3248 6.9879 73.9866 3.12984 71.115 2.03103C70.2276 1.69223 69.2455 1.69986 68.2976 1.77616C63.5069 2.16685 59.1521 4.14624 55.0813 6.73608C52.8302 4.4881 49.805 3.00317 46.7347 1.98066C32.4153 -2.79002 15.4663 1.25881 4.9649 11.957C3.29714 13.6556 1.75971 15.5434 0.911093 17.7517C-0.198156 20.6376 -0.0507679 23.8226 0.112129 26.9039C0.284334 30.1591 0.470498 33.4754 1.64025 36.5246C3.51279 41.4067 7.66899 45.0404 11.7399 48.3842C13.3254 49.6875 15.004 51.0228 16.8036 52.14C15.6633 53.3838 14.4641 54.5726 13.164 55.6608C10.9486 57.515 5.67234 60.2224 4.92767 63.2075C4.04182 66.7588 9.16609 68.7366 12.0936 68.4039C15.1483 68.0575 17.8167 66.2918 20.3486 64.5779C20.3951 64.5459 20.4416 64.5154 20.4882 64.4833C20.5409 64.5505 20.5875 64.6207 20.6418 64.6848C23.2326 67.7553 27.3919 69.0876 31.4085 69.6447C42.169 71.1342 53.5159 67.8851 61.7818 60.9457C63.1641 59.7844 64.5401 58.4856 66.2963 58.0232C67.6569 57.6646 69.2967 57.7699 70.226 56.7275C70.8652 56.0102 70.935 54.9725 70.9536 54.0186C71.0653 48.1125 70.3967 42.0935 68.006 36.6742C67.4723 35.4655 66.3646 33.3762 64.9357 31.3342C65.184 30.8734 65.4337 30.4109 65.6773 29.95C69.0687 23.5693 72.5066 17.0604 73.7849 9.96995L73.7865 9.97301ZM18.9585 41.7714C15.6804 38.7329 13.1563 34.7589 12.5171 30.3728C11.8779 25.9867 13.3316 21.2068 16.7788 18.353C18.3504 17.0527 20.257 16.1889 22.2227 15.6029C29.1341 13.5442 36.4381 14.8276 43.7095 15.348C42.4095 16.4499 41.1513 17.596 40.011 18.8551C36.4909 22.7376 34.1653 27.496 31.4597 31.9645C29.055 35.9371 26.3277 39.7112 23.605 43.4792C23.2683 43.9447 22.9301 44.4116 22.5919 44.8771C21.3849 43.8393 20.1267 42.8519 18.9585 41.7699V41.7714ZM58.966 41.4159C60.7516 45.2098 61.684 49.9942 59.1459 53.3471C56.7568 56.5032 52.2903 57.1472 48.3032 57.4463C43.165 57.834 37.7754 58.0232 33.0856 55.9614C33.869 55.4318 34.6509 54.9023 35.4344 54.3727C38.4161 52.3552 41.4104 50.33 44.6621 48.7672C48.2194 47.0564 52.0855 45.8966 55.3202 43.6501C56.5396 42.8031 57.6318 41.8264 58.6324 40.7581C58.7596 40.9977 58.8729 41.219 58.966 41.4159Z" fill="var(--fill-0, #F8CD41)"/>
</svg>
