<svg preserveAspectRatio="none" width="100%" height="100%" overflow="visible" style="display: block;" viewBox="0 0 76 80" fill="none" xmlns="http://www.w3.org/2000/svg">
<path id="Vector" d="M75.9368 39.0443C75.5429 34.3939 70.4354 27.0655 69.3168 22.5381C67.7445 16.1807 68.2035 9.32451 70.6078 3.24156C65.8556 6.22067 59.7684 6.09239 54.3655 4.64916C48.9625 3.20593 46.2188 2.5734 40.4149 1.41525C34.9328 0.323032 30.4479 -0.938457 25.2103 1.03574C23.2316 1.78052 21.4184 2.91728 19.6807 4.13423C15.486 7.06701 11.6571 10.4933 8.03935 14.1192C5.20421 16.9594 1.8643 26.4152 0 30.034C0 30.034 4.68537 30.54 9.81747 26.066C12.7353 23.5216 16.5501 26.5987 18.8734 24.4161C20.8344 22.5755 23.1156 21.1234 25.7168 20.4997C32.3228 18.914 34.0657 17.0057 36.2167 18.4382C36.8217 18.8409 37.3388 19.395 37.6624 20.0507C38.5066 21.7612 37.4918 22.8517 36.5473 23.8067C33.9742 26.4116 28.3637 31.2741 26.4379 45.4694C26.2673 46.7309 25.0045 47.6093 23.9404 48.2864C22.9028 48.9456 20.8591 48.044 19.6543 48.2668C18.6747 48.4485 17.6722 48.6302 16.689 48.4681C16.3056 48.4057 15.9134 48.2917 15.5247 48.2151C14.932 48.0975 14.5415 48.8191 14.9689 49.2521C18.7222 53.049 23.2352 57.6068 26.153 61.8509C26.459 62.2964 26.758 62.7454 27.0517 63.198C27.3753 63.6951 28.1263 63.5686 28.267 62.9895C28.7665 60.9298 29.3152 59.4652 29.8253 57.0455C30.1507 55.5043 29.7884 53.3092 30.6818 52.0192C31.8074 50.396 35.274 49.1968 37.0081 48.2757C38.3518 47.5612 39.9206 46.9269 41.099 45.9576C42.1666 45.0774 44.9877 43.0088 45.795 41.8791C47.9618 38.8466 48.7937 37.5958 50.5437 36.7031C52.7052 35.6002 54.8333 35.9548 55.0989 38.3263C55.1622 38.8965 55.0496 39.4773 54.8544 40.0154C53.2223 44.5322 51.8662 47.4721 52.1336 51.0891C52.4009 54.6918 49.9052 59.5204 48.8992 63.4278C48.1799 66.218 50.2623 66.1788 47.4676 69.6212C42.3759 75.8948 45.1847 80 45.1847 80C46.6357 79.9323 47.8158 78.8419 48.8482 77.8049C54.3989 72.2404 60.4368 68.8622 65.4528 62.7988C71.102 55.9693 76.6843 47.9193 75.9315 39.0408L75.9368 39.0443Z" fill="var(--fill-0, #BFD1F9)"/>
</svg>
