<svg preserveAspectRatio="none" width="100%" height="100%" overflow="visible" style="display: block;" viewBox="0 0 55 57" fill="none" xmlns="http://www.w3.org/2000/svg">
<g id="_&#195;&#142;&#195;&#147;&#195;&#136;_1" clip-path="url(#clip0_2044_85)">
<path id="Vector" d="M53.4578 56.9991C53.7606 57.0054 54.1034 56.9954 54.3111 56.7733C54.4687 56.6052 54.5038 56.3593 54.53 56.1297C55.0255 51.8868 55.2757 47.5661 54.53 43.3608C53.7831 39.1542 51.9653 35.038 48.8362 32.1374C43.9869 27.6435 37.0633 26.7879 30.3649 26.0339C34.2145 25.8018 36.5616 25.9072 39.5805 25.236C41.8 24.743 44.0057 24.0266 45.8949 22.7583C47.7828 21.4886 49.3392 19.6118 49.8659 17.3937C50.3726 15.2585 49.9047 13.0253 49.393 10.8913C49.0414 9.42973 48.6536 7.93429 47.7816 6.71109C46.827 5.36995 45.3757 4.47419 43.8994 3.75031C36.9294 0.331611 28.8923 0.0480792 21.1354 0.0029148C17.5147 -0.0184128 13.7364 0.0342791 10.5135 1.69031C7.35697 3.31246 5.13 6.27073 3.05941 9.15875C2.58024 9.82618 2.09856 10.5062 1.81581 11.2777C1.32162 12.6289 1.48552 14.1281 1.75951 15.5407C2.05352 17.0562 2.47515 18.5655 3.23707 19.9066C4.72339 22.5199 7.40326 24.2788 10.242 25.2536C13.0795 26.2284 17.9601 26.2873 21.3331 26.2497C19.0386 26.8155 16.1197 27.0702 13.6538 27.7891C8.52301 29.287 2.93305 33.185 1.2378 38.2672C0.666043 39.9784 0.399557 41.7762 0.218146 43.5715C-0.132165 47.0517 -0.159689 50.6335 0.889991 53.9694C1.03512 54.4298 1.22028 54.9116 1.60938 55.1938C1.98721 55.4673 2.4814 55.5012 2.94681 55.525C15.6531 56.1674 29.2977 56.54 42.0177 56.7809C45.8286 56.8536 49.6457 56.9979 53.4566 56.9979L53.4578 56.9991Z" fill="var(--fill-0, #F8CD41)"/>
</g>
<defs>
<clipPath id="clip0_2044_85">
<rect width="55" height="57" fill="white"/>
</clipPath>
</defs>
</svg>
