<svg preserveAspectRatio="none" width="100%" height="100%" overflow="visible" style="display: block;" viewBox="0 0 74 64" fill="none" xmlns="http://www.w3.org/2000/svg">
<path id="Vector" d="M10.4504 12.6316C12.0214 12.4241 15.1499 12.6839 15.278 11.903C15.571 10.1175 15.7035 4.85925 15.6888 3.04829C15.6638 -0.285493 18.7894 -0.0287044 22.4171 0.0280281C26.0447 0.0847606 30.2245 0.105662 30.173 2.29434C30.1244 4.35761 30.092 10.2877 30.4821 12.3121C30.5837 12.8406 33.7388 13.4079 35.4717 13.1138C36.9689 12.86 40.8661 13.5975 40.8661 11.4104C40.8661 8.52745 41.0825 5.82519 40.9382 2.94527C40.8234 0.638649 42.3825 0.60879 44.451 0.419184C46.5196 0.231071 48.8561 -0.143663 50.8377 0.489353C52.8459 1.13133 53.9928 0.786452 54.3388 2.89302C54.6229 4.62933 54.5449 7.6466 54.6362 9.40382C54.7437 11.4641 54.776 12.6585 55.5711 12.6331C57.6043 12.5659 62.7852 13.2527 64.8081 13.0317C66.831 12.8108 69.0453 12.8899 70.6574 14.1484C72.8275 15.843 73.1352 18.9871 73.2516 21.7625C73.5828 29.6334 73.8287 37.5088 73.9892 45.3842C74.0378 47.7774 73.9892 50.4289 72.3917 52.1936C71.1447 53.573 69.1999 54.0836 67.3551 54.1105C65.5104 54.1374 63.6848 53.7507 61.8444 53.6432C60.5326 53.5671 58.1902 53.2162 57.806 54.4912C56.8593 57.6205 58.5774 63.2579 55.7993 63.3699C52.1746 63.5177 47.7592 63.7446 44.1389 63.5042C41.7759 63.3475 42.4429 58.5476 42.2942 54.8719C42.1911 52.3205 37.1486 53.055 35.0064 53.2983C32.8657 53.5417 31.6953 52.6877 31.3537 54.8451C30.9827 57.192 31.1903 63.5893 30.1214 63.8028C27.2608 64.3776 20.4045 63.4744 17.5114 63.8551C16.1246 64.0372 15.7506 61.208 15.9199 58.2565C16.0509 55.9693 16.7164 53.361 15.5857 53.2312C13.6997 53.0132 10.9908 52.8878 9.11951 53.2028C6.72413 53.6044 4.16237 52.7997 2.41037 51.0962C0.658373 49.3928 -0.241182 46.8293 0.0562167 44.3854C1.0765 36.4368 -0.020324 28.3405 0.000287737 20.3248C0.00470454 18.5572 0.00469449 16.7029 0.836526 15.1502C2.81378 11.4537 7.41022 13.0362 10.4519 12.6331L10.4504 12.6316Z" fill="var(--fill-0, #BFD1F9)"/>
</svg>
