<svg preserveAspectRatio="none" width="100%" height="100%" overflow="visible" style="display: block;" viewBox="0 0 77 74" fill="none" xmlns="http://www.w3.org/2000/svg">
<path id="Vector" d="M7.76628 15.2887C8.46812 11.5845 9.36166 7.60721 12.1901 5.1155C14.528 3.05453 17.8308 2.39788 20.942 2.58967C24.0515 2.78147 27.057 3.72743 30.0707 4.52062C40.6275 7.30164 51.8017 8.25086 62.4917 6.04034C66.922 5.12526 71.497 3.469 74.6845 0.393788C75.6609 -0.54893 77.2725 0.332024 76.9606 1.65345C76.8306 2.20283 76.6795 2.75058 76.5463 3.28208C76.0459 5.29917 75.8428 7.37478 75.643 9.44388C75.0484 15.5878 74.4522 21.7317 73.8575 27.8756C73.2792 33.8473 72.6992 39.8384 72.8681 45.836C72.9331 48.1717 73.0858 50.639 72.0022 52.7081C71.3572 53.9402 70.3207 54.9219 69.2144 55.7638C62.2577 61.0512 52.6383 61.1422 44.0587 59.486C35.4807 57.8297 27.1464 54.6667 18.4206 54.2295C15.2168 54.0686 11.5127 54.5383 9.7272 57.2056C6.97834 61.3129 9.6151 70.7661 4.44555 73.3715C-2.31125 76.7767 0.548085 65.3893 0.895754 62.0784C2.53825 46.3968 4.82896 30.7834 7.76466 15.292L7.76628 15.2887Z" fill="var(--fill-0, #EC612C)"/>
</svg>
