<svg preserveAspectRatio="none" width="100%" height="100%" overflow="visible" style="display: block;" viewBox="0 0 201 81" fill="none" xmlns="http://www.w3.org/2000/svg">
<g id="Laag_1" clip-path="url(#clip0_2039_60)">
<path id="Vector" d="M87.7771 25.4192V0.0715457H98.5525C102.131 0.0715457 104.911 1.24694 106.414 3.11735C107.416 4.2212 107.917 5.59079 107.886 7.03192C107.856 9.27028 106.813 11.0487 105.014 12.2548C103.276 13.4608 100.802 14.0945 97.9186 14.0945H92.9706V25.4396H87.7874L87.7771 25.4192ZM92.9603 13.1849H97.2132C99.125 13.1849 100.556 12.5818 101.497 11.6109C102.396 10.6705 102.836 9.30095 102.836 7.96202C102.836 6.49022 102.335 4.98776 101.364 3.81237C99.994 2.10549 97.7142 0.940316 94.8414 0.940316H92.9706V13.1849H92.9603Z" fill="var(--fill-0, #221F1E)"/>
<path id="Vector_2" d="M112.64 25.4192V0.603028L117.864 0V25.4192H112.64Z" fill="var(--fill-0, #221F1E)"/>
<path id="Vector_3" d="M123.201 21.5455C122.996 17.9375 126.677 16.7928 130.296 15.7912C132.77 15.0859 135.183 14.4522 136.389 13.1133C136.46 10.7727 136.685 8.83079 134.62 8.53438C132.647 8.29931 129.805 9.97552 125.92 13.8901L124.008 10.5479C127.525 7.90069 131.206 7.53274 133.782 7.53274C137.595 7.53274 141.582 8.97388 141.582 13.4199V25.4294H136.634V21.5455C134.16 24.3562 130.746 25.7565 128.169 25.7565C125.123 25.7565 123.313 24.0496 123.221 21.5455H123.201ZM136.348 20.4416V14.4522C134.712 15.7912 132.371 16.2613 130.592 16.895C128.854 17.5594 127.781 18.3362 127.812 19.6035C127.883 21.4433 129.447 22.4756 131.758 22.4756C133.465 22.4756 135.142 21.8419 136.338 20.4314L136.348 20.4416Z" fill="var(--fill-0, #221F1E)"/>
<path id="Vector_4" d="M146.796 25.419V7.85965H151.744V10.9361C153.421 9.06571 156.232 7.4917 159.207 7.4917C163.388 7.4917 164.39 9.8016 164.329 14.217V25.419H159.146V14.5134C159.146 11.4369 158.778 9.56653 156.569 9.56653C155.097 9.53586 153.257 10.5988 152.02 11.9071V25.419H146.796Z" fill="var(--fill-0, #221F1E)"/>
<path id="Vector_5" d="M168.572 16.6599C168.572 11.0691 172.988 7.52252 178.345 7.52252C182.363 7.49186 186.074 10.0266 186.207 13.0724C186.278 14.7486 185.604 15.2086 182.966 15.2086L174.164 15.1779V15.045L179.286 14.7793C181.361 14.6771 181.494 14.0127 181.494 12.776C181.463 10.2004 178.918 8.46284 176.914 8.65704C174.706 8.82057 173.469 10.7625 173.469 13.6448C173.469 18.0602 176.311 23.4159 180.093 24.1518C183.201 24.8161 185.583 23.2115 187.025 21.4126L187.464 21.6477C185.553 24.3256 182.884 25.9915 178.161 25.7667C172.804 25.5009 168.592 22.0872 168.592 16.6702L168.572 16.6599Z" fill="var(--fill-0, #221F1E)"/>
<path id="Vector_6" d="M191.319 20.4416V7.85981H188.671V7.25678H191.319V3.74082H196.502V7.25678H199.548V7.85981H196.502V20.3394C196.502 22.4756 196.502 24.3153 198.311 24.3153C199.15 24.3153 199.886 24.1518 200.755 23.5488L200.918 23.8554C199.783 24.9592 197.841 25.7973 195.735 25.7973C191.85 25.7973 191.319 24.0905 191.319 20.4416Z" fill="var(--fill-0, #221F1E)"/>
<path id="Vector_7" d="M97.0292 58.412V33.79C92.6434 33.8922 90.4352 34.2602 87.7976 35.2312L88.4621 33.0541H110.851L111.516 35.2312C108.837 34.2602 106.598 33.8922 102.212 33.79V58.412H97.0292Z" fill="var(--fill-0, #221F1E)"/>
<path id="Vector_8" d="M109.215 54.2623C109.011 50.6544 112.691 49.5097 116.31 48.508C118.784 47.8028 121.197 47.1691 122.403 45.8302C122.475 43.4896 122.7 41.5476 120.635 41.2512C118.662 41.0162 115.82 42.6924 111.935 46.6069L110.023 43.2647C113.54 40.6175 117.22 40.2496 119.796 40.2496C123.61 40.2496 127.597 41.6907 127.597 46.1368V58.1462H122.649V54.2623C120.175 57.0731 116.76 58.4733 114.184 58.4733C111.137 58.4733 109.328 56.7664 109.236 54.2623H109.215ZM122.363 53.1585V47.1691C120.727 48.508 118.386 48.9782 116.607 49.6119C114.869 50.2762 113.795 51.053 113.826 52.3204C113.898 54.1601 115.462 55.1924 117.772 55.1924C119.48 55.1924 121.156 54.5587 122.352 53.1483L122.363 53.1585Z" fill="var(--fill-0, #221F1E)"/>
<path id="Vector_9" d="M133.935 58.1462V33.3301L139.159 32.7271V58.1462H133.935Z" fill="var(--fill-0, #221F1E)"/>
<path id="Vector_10" d="M144.547 49.3768C144.547 43.786 148.963 40.2394 154.32 40.2394C158.338 40.2087 162.049 42.7435 162.182 45.7893C162.254 47.4655 161.579 47.9254 158.941 47.9254L150.139 47.8948V47.7619L155.261 47.4962C157.336 47.3939 157.469 46.7296 157.469 45.4929C157.439 42.9172 154.893 41.1797 152.889 41.3739C150.681 41.5374 149.444 43.4794 149.444 46.3616C149.444 50.777 152.286 56.1327 156.069 56.8686C159.177 57.533 161.559 55.9283 163 54.1295L163.429 54.3645C161.518 57.0424 158.849 58.7084 154.126 58.4835C148.769 58.2178 144.557 54.804 144.557 49.387L144.547 49.3768Z" fill="var(--fill-0, #221F1E)"/>
<path id="Vector_11" d="M167.243 58.1462V40.5869H172.191V43.6633C173.867 41.7929 176.679 40.2189 179.654 40.2189C183.835 40.2189 184.837 42.5288 184.776 46.9442V58.1462H179.592V47.2406C179.592 44.1642 179.224 42.2938 177.016 42.2938C175.544 42.2631 173.704 43.3261 172.467 44.6343V58.1462H167.243Z" fill="var(--fill-0, #221F1E)"/>
<path id="Vector_12" d="M191.4 53.1585V40.5767H188.753V39.9736H191.4V36.4577H196.584V39.9736H199.63V40.5767H196.584V53.0563C196.584 55.1924 196.584 57.0322 198.393 57.0322C199.231 57.0322 199.967 56.8686 200.836 56.2656L201 56.5722C199.865 57.6761 197.923 58.5142 195.817 58.5142C191.932 58.5142 191.4 56.8073 191.4 53.1585Z" fill="var(--fill-0, #221F1E)"/>
<path id="Vector_13" d="M42.4571 0.102563C68.6185 -2.1358 72.7896 34.8227 71.6957 53.5779C70.6836 71.0453 63.057 80.1827 44.6346 77.9035C29.7495 76.0535 1.59462 64.2689 0.0611251 46.9344C-0.85897 36.5705 8.35221 25.4604 14.8951 18.1934C21.7754 10.5585 31.692 1.02244 42.4571 0.102563ZM55.8394 64.2791C66.5943 52.8931 64.5496 22.9461 54.633 11.4068C45.1458 0.358082 33.6037 8.49386 26.3656 17.2633C17.134 28.4551 11.5419 44.7573 21.5402 57.3698C28.7988 66.5277 46.3522 74.3159 55.8394 64.2791Z" fill="var(--fill-0, #221F1E)"/>
<path id="Vector_14" d="M91.1406 69.5322H92.3674L95.7104 78.179H94.6267L93.8395 76.1042H89.6582L88.8608 78.179H87.7669L91.1304 69.5322H91.1406ZM93.5431 75.1946L91.7744 70.5339H91.754L89.9751 75.1946H93.5533H93.5431Z" fill="var(--fill-0, #221F1E)"/>
<path id="Vector_15" d="M102.54 74.1826V78.1789H101.589V74.2848C101.589 73.232 100.965 72.5574 99.984 72.5574C98.747 72.5574 97.8473 73.4262 97.8473 74.6936V78.1891H96.917V71.9953H97.7655L97.8473 72.9152H97.8575C98.3891 72.1691 99.1559 71.75 100.24 71.75C101.661 71.75 102.54 72.6597 102.54 74.1928V74.1826Z" fill="var(--fill-0, #221F1E)"/>
<path id="Vector_16" d="M107.784 73.8659C107.784 71.0756 109.624 69.2358 112.436 69.2358C115.247 69.2358 117.108 71.0756 117.108 73.8659C117.108 76.6562 115.268 78.4857 112.436 78.4857C109.604 78.4857 107.784 76.6459 107.784 73.8659ZM116.075 73.8659C116.075 71.6173 114.634 70.1353 112.436 70.1353C110.238 70.1353 108.796 71.6173 108.796 73.8659C108.796 76.1145 110.238 77.576 112.436 77.576C114.634 77.576 116.075 76.094 116.075 73.8659Z" fill="var(--fill-0, #221F1E)"/>
<path id="Vector_17" d="M123.201 73.6615L122.393 73.9272C122.291 73.0584 121.841 72.5883 121.166 72.5883C120.175 72.5883 119.541 73.4059 119.541 74.7551V78.1586H118.611V71.9648H119.408L119.49 72.9358H119.5C119.848 72.1897 120.512 71.7093 121.289 71.7093C122.342 71.7093 123.068 72.4043 123.191 73.6512L123.201 73.6615Z" fill="var(--fill-0, #221F1E)"/>
<path id="Vector_18" d="M124.039 71.9852H125.031L127.096 77.3512H127.106L129.171 71.9852H130.153L127.699 78.1791H126.482L124.039 71.9852Z" fill="var(--fill-0, #221F1E)"/>
<path id="Vector_19" d="M131.236 70.0944C131.236 69.6856 131.502 69.4198 131.921 69.4198C132.34 69.4198 132.627 69.6856 132.627 70.0944C132.627 70.5032 132.33 70.7792 131.921 70.7792C131.512 70.7792 131.236 70.5134 131.236 70.0944ZM131.441 71.9852H132.371V78.1791H131.441V71.9852Z" fill="var(--fill-0, #221F1E)"/>
<path id="Vector_20" d="M133.813 76.5642C133.813 75.5727 134.6 74.7755 136.614 74.5302L138.147 74.3462C138.454 74.3054 138.648 74.1418 138.648 73.8659C138.648 73.0891 137.912 72.5883 136.828 72.5883C135.663 72.5883 134.835 73.3344 134.784 74.0703L133.935 73.7126C134.048 72.6905 135.254 71.7399 136.859 71.7399C138.464 71.7399 139.558 72.6189 139.558 74.009V78.179H138.71L138.607 77.1468H138.597C138.157 77.9338 137.299 78.4244 136.195 78.4244C134.784 78.4244 133.802 77.668 133.802 76.5642H133.813ZM138.638 75.5319V75.0924L136.716 75.3274C135.213 75.5114 134.753 75.9918 134.753 76.5539C134.753 77.1774 135.428 77.5862 136.379 77.5862C137.677 77.5862 138.638 76.7379 138.638 75.5421V75.5319Z" fill="var(--fill-0, #221F1E)"/>
<path id="Vector_21" d="M144.762 75.0924C144.762 73.13 146.04 71.7502 147.859 71.7502C149.26 71.7502 150.405 72.6189 150.712 73.8761L149.802 74.0805C149.556 73.1811 148.769 72.6087 147.859 72.6087C146.622 72.6087 145.692 73.6104 145.692 75.1026C145.692 76.5948 146.684 77.5863 148.043 77.5863C149.178 77.5863 150.108 76.8606 150.282 75.7976L151.192 75.9816C150.957 77.4023 149.648 78.4346 148.043 78.4346C146.111 78.4346 144.762 77.0446 144.762 75.1026V75.0924Z" fill="var(--fill-0, #221F1E)"/>
<path id="Vector_22" d="M152.255 75.0924C152.255 73.0687 153.574 71.7502 155.558 71.7502C157.541 71.7502 158.88 73.0687 158.88 75.0924C158.88 77.1161 157.561 78.4244 155.558 78.4244C153.554 78.4244 152.255 77.1059 152.255 75.0924ZM157.929 75.0924C157.929 73.5797 156.999 72.5985 155.558 72.5985C154.116 72.5985 153.186 73.5797 153.186 75.0924C153.186 76.6051 154.116 77.576 155.558 77.576C156.999 77.576 157.929 76.5948 157.929 75.0924Z" fill="var(--fill-0, #221F1E)"/>
<path id="Vector_23" d="M160.322 71.9852H161.129L161.231 72.8949H161.242C161.61 72.1692 162.417 71.7399 163.419 71.7399C164.421 71.7399 165.065 72.1897 165.382 72.9869H165.392C165.944 72.1181 166.803 71.7399 167.723 71.7399C169.073 71.7399 169.87 72.5985 169.87 74.0601V78.179H168.919V74.1214C168.919 73.1606 168.367 72.5985 167.437 72.5985C166.261 72.5985 165.556 73.4775 165.556 74.7346V78.179H164.626V74.1214C164.626 73.1606 164.073 72.5985 163.123 72.5985C161.947 72.5985 161.242 73.4775 161.242 74.7346V78.179H160.311V71.9852H160.322Z" fill="var(--fill-0, #221F1E)"/>
<path id="Vector_24" d="M171.506 71.9852H172.313L172.416 73.0482H172.426C172.958 72.2305 173.806 71.7399 174.849 71.7399C176.669 71.7399 178.008 73.1504 178.008 75.0821C178.008 77.0139 176.669 78.4141 174.859 78.4141C173.827 78.4141 172.988 77.9338 172.446 77.1365H172.436V80.7445H171.506V71.975V71.9852ZM177.067 75.0924C177.067 73.6614 176.086 72.5985 174.747 72.5985C173.407 72.5985 172.426 73.6819 172.426 75.0924C172.426 76.5028 173.407 77.5658 174.747 77.5658C176.086 77.5658 177.067 76.4926 177.067 75.0924Z" fill="var(--fill-0, #221F1E)"/>
<path id="Vector_25" d="M179.081 76.5642C179.081 75.5727 179.868 74.7755 181.882 74.5302L183.416 74.3462C183.723 74.3054 183.917 74.1418 183.917 73.8659C183.917 73.0891 183.181 72.5883 182.097 72.5883C180.932 72.5883 180.104 73.3344 180.052 74.0703L179.204 73.7126C179.316 72.6905 180.523 71.7399 182.128 71.7399C183.733 71.7399 184.827 72.6189 184.827 74.009V78.179H183.978L183.876 77.1468H183.866C183.426 77.9338 182.567 78.4244 181.463 78.4244C180.052 78.4244 179.071 77.668 179.071 76.5642H179.081ZM183.896 75.5319V75.0924L181.974 75.3274C180.472 75.5114 180.012 75.9918 180.012 76.5539C180.012 77.1774 180.686 77.5862 181.637 77.5862C182.935 77.5862 183.896 76.7379 183.896 75.5421V75.5319Z" fill="var(--fill-0, #221F1E)"/>
<path id="Vector_26" d="M192.095 74.1827V78.1791H191.145V74.2849C191.145 73.2322 190.521 72.5576 189.54 72.5576C188.303 72.5576 187.403 73.4264 187.403 74.6938V78.1893H186.473V71.9955H187.321L187.403 72.9153H187.413C187.945 72.1692 188.712 71.7502 189.795 71.7502C191.216 71.7502 192.095 72.6598 192.095 74.1929V74.1827Z" fill="var(--fill-0, #221F1E)"/>
<path id="Vector_27" d="M192.954 79.3749L193.752 78.8332C194.14 79.6202 194.978 80.1415 196.083 80.1415C197.483 80.1415 198.342 79.3545 198.342 78.0462V77.5045H198.332C197.902 78.2302 197.064 78.6594 196.205 78.6594C194.662 78.6594 193.649 77.5045 193.649 75.9305V71.9852H194.58V75.9305C194.58 77.0343 195.234 77.8213 196.308 77.8213C197.381 77.8213 198.321 76.973 198.321 75.7976V71.9852H199.252V78.0564C199.262 79.9064 198.035 81 196.093 81C194.559 81 193.414 80.3663 192.934 79.3851L192.954 79.3749Z" fill="var(--fill-0, #221F1E)"/>
</g>
<defs>
<clipPath id="clip0_2039_60">
<rect width="201" height="81" fill="white"/>
</clipPath>
</defs>
</svg>
