<svg preserveAspectRatio="none" width="100%" height="100%" overflow="visible" style="display: block;" viewBox="0 0 119 35" fill="none" xmlns="http://www.w3.org/2000/svg">
<g id="Laag_1" clip-path="url(#clip0_2036_32)">
<path id="Vector" d="M89.7669 6.99211C91.0391 5.62883 90.8011 2.03053 89.6205 0.639433C88.4947 -0.686746 87.131 0.287022 86.2707 1.34426C85.1724 2.68898 84.5134 4.64579 85.7032 6.15745C86.5636 7.26105 88.6412 8.18845 89.7669 6.98284V6.99211Z" fill="var(--fill-0, #211E1D)"/>
<path id="Vector_2" d="M17.0695 2.61552C12.7404 2.98648 8.74994 6.88155 5.98591 9.98833C3.35916 12.956 -0.338429 17.4817 0.0276683 21.7014C0.640882 28.7681 11.9624 33.5721 17.9481 34.3233C25.3616 35.2507 28.4185 31.5318 28.8304 24.4094C29.2697 16.7676 27.5857 1.70667 17.0695 2.61552ZM22.4511 28.7774C18.6346 32.8672 11.578 29.6955 8.65842 25.9581C4.6405 20.8203 6.88284 14.1802 10.5987 9.61738C13.5092 6.03762 18.1495 2.72681 21.9661 7.23396C25.9474 11.9359 26.7711 24.1404 22.4511 28.7774Z" fill="var(--fill-0, #211E1D)"/>
<path id="Vector_3" d="M50.6221 11.3143C47.4829 11.3143 44.188 12.7424 41.6802 15.163V11.7872H36.0148V34.5734H41.9273L41.9731 17.0456C44.4992 14.0872 47.9039 13.9944 52.3794 16.7488L52.6265 16.9065L54.814 12.6683L54.6309 12.5291C53.6882 11.7872 52.3062 11.3606 50.613 11.3143H50.6221Z" fill="var(--fill-0, #211E1D)"/>
<path id="Vector_4" d="M77.3656 12.084C77.5211 13.8553 77.2008 15.3577 76.0293 18.2512L71.206 29.9735L63.7376 11.7872H57.3949L66.7945 34.5734H70.9588L77.5852 18.548C78.7293 15.673 79.5164 13.9573 80.4865 12.1953L80.7153 11.7872H77.3289L77.3564 12.0933L77.3656 12.084Z" fill="var(--fill-0, #211E1D)"/>
<path id="Vector_5" d="M90.847 11.7783H84.9346V34.5645H90.847V11.7783Z" fill="var(--fill-0, #211E1D)"/>
<path id="Vector_6" d="M109.6 11.3514C105.015 11.3514 100.961 12.6219 97.5558 15.1351L97.3545 15.2835L99.8623 19.4383L100.109 19.1971C104.521 14.894 108.218 12.7795 110.836 13.0578C113.17 13.3824 113.234 15.1351 113.142 18.4645V18.7149C111.687 20.1987 108.923 20.9314 105.994 21.7104L105.766 21.7753C101.345 23.018 96.3386 24.4277 96.5216 29.3336C96.6131 32.7742 99.1758 35 103.056 35C105.875 35 110.012 33.6738 113.39 30.0106V34.5734H119.009V18.8725C119.009 14.0964 115.577 11.3606 109.6 11.3606V11.3514ZM113.088 27.8961C111.477 29.8529 109.353 30.8453 106.763 30.8453C103.789 30.8453 101.867 29.4727 101.757 27.2655C101.757 25.42 103.468 24.474 106.214 23.5466C106.571 23.4353 106.937 23.3148 107.312 23.1942C109.253 22.5914 111.431 21.9051 113.088 20.7088V27.8869V27.8961Z" fill="var(--fill-0, #211E1D)"/>
</g>
<defs>
<clipPath id="clip0_2036_32">
<rect width="119" height="35" fill="white"/>
</clipPath>
</defs>
</svg>
