<svg preserveAspectRatio="none" width="100%" height="100%" overflow="visible" style="display: block;" viewBox="0 0 112 32" fill="none" xmlns="http://www.w3.org/2000/svg">
<g id="Laag_1" clip-path="url(#clip0_2036_46)">
<path id="Vector" d="M84.4867 6.39322C85.684 5.14679 85.4601 1.85692 84.3489 0.585056C83.2893 -0.627451 82.0058 0.262851 81.1961 1.22946C80.1624 2.45893 79.5422 4.24801 80.6621 5.6301C81.4718 6.63911 83.4272 7.48702 84.4867 6.38474V6.39322Z" fill="var(--fill-0, white)"/>
<path id="Vector_2" d="M16.0652 2.3911C11.9907 2.73026 8.23501 6.29147 5.63356 9.13196C3.16133 11.8453 -0.318751 15.983 0.0258118 19.841C0.602954 26.3021 11.2585 30.6942 16.8921 31.381C23.8695 32.2289 26.7466 28.8288 27.1343 22.3169C27.5477 15.3302 25.9627 1.56015 16.0652 2.3911ZM21.1303 26.3105C17.5382 30.0498 10.8968 27.15 8.14887 23.7329C4.3673 19.0355 6.47774 12.9645 9.97505 8.79279C12.7143 5.51987 17.0816 2.49285 20.6737 6.61367C24.4208 10.9126 25.1961 22.071 21.1303 26.3105Z" fill="var(--fill-0, white)"/>
<path id="Vector_3" d="M47.6444 10.3445C44.6897 10.3445 41.5887 11.6502 39.2284 13.8633V10.7769H33.8963V31.61H39.461L39.5041 15.5845C41.8816 12.8797 45.086 12.7949 49.2983 15.3132L49.5308 15.4573L51.5896 11.5824L51.4173 11.4552C50.5301 10.7769 49.2293 10.3869 47.6357 10.3445H47.6444Z" fill="var(--fill-0, white)"/>
<path id="Vector_4" d="M72.8146 11.0482C72.9611 12.6677 72.6596 14.0413 71.557 16.6868L67.0174 27.4043L59.9883 10.7769H54.0188L62.8654 31.61H66.7848L73.0214 16.9581C74.0981 14.3296 74.8389 12.761 75.752 11.15L75.9674 10.7769H72.7802L72.806 11.0567L72.8146 11.0482Z" fill="var(--fill-0, white)"/>
<path id="Vector_5" d="M85.5032 10.7684H79.9385V31.6015H85.5032V10.7684Z" fill="var(--fill-0, white)"/>
<path id="Vector_6" d="M103.153 10.3784C98.8377 10.3784 95.0217 11.54 91.8173 13.8378L91.6277 13.9735L93.988 17.7721L94.2206 17.5517C98.3726 13.6174 101.853 11.6842 104.316 11.9385C106.513 12.2353 106.573 13.8378 106.487 16.8818V17.1108C105.117 18.4674 102.516 19.1373 99.7594 19.8495L99.5441 19.9088C95.3835 21.045 90.6716 22.3339 90.8439 26.8193C90.93 29.965 93.3419 32 96.9943 32C99.6474 32 103.541 30.7875 106.72 27.4383V31.61H112.009V17.2549C112.009 12.8882 108.778 10.3869 103.153 10.3869V10.3784ZM106.435 25.505C104.919 27.2941 102.921 28.2014 100.483 28.2014C97.6834 28.2014 95.8745 26.9465 95.7711 24.9285C95.7711 23.2411 97.3819 22.3763 99.9662 21.5284C100.302 21.4266 100.647 21.3164 101 21.2061C102.826 20.655 104.876 20.0276 106.435 18.9338V25.4966V25.505Z" fill="var(--fill-0, white)"/>
</g>
<defs>
<clipPath id="clip0_2036_46">
<rect width="112" height="32" fill="white"/>
</clipPath>
</defs>
</svg>
