<svg preserveAspectRatio="none" width="100%" height="100%" overflow="visible" style="display: block;" viewBox="0 0 236 82" fill="none" xmlns="http://www.w3.org/2000/svg">
<g id="Laag_1" clip-path="url(#clip0_2039_89)">
<path id="Vector" d="M113.974 5.81086C115.035 4.67954 114.831 1.68669 113.852 0.534805C112.872 -0.617083 111.77 0.246833 111.055 1.12103C110.137 2.24207 109.586 3.86705 110.576 5.12179C111.29 6.03713 113.035 6.80848 113.974 5.81086Z" fill="var(--fill-0, #221F1E)"/>
<path id="Vector_2" d="M87.6236 26.442V0.822777H105.503L106.146 3.02371C105.208 2.65346 104.167 2.38605 102.962 2.18036C100.013 1.73812 96.5942 1.70726 92.8284 1.70726V13.1027C95.145 13.1027 97.5943 13.1336 99.4313 12.897C100.105 12.7942 100.676 12.6605 101.146 12.4959V14.6249C100.676 14.4192 100.074 14.2855 99.4007 14.2238C97.5535 13.9872 95.145 14.0181 92.8284 14.0181V26.4626H87.6338L87.6236 26.442Z" fill="var(--fill-0, #221F1E)"/>
<path id="Vector_3" d="M109.667 26.442V8.70086H114.903V26.4523H109.667V26.442Z" fill="var(--fill-0, #221F1E)"/>
<path id="Vector_4" d="M121.016 26.442V8.70087H125.976V11.8068C127.649 9.91446 130.466 8.33062 133.456 8.33062C137.651 8.33062 138.651 10.6652 138.589 15.1288V26.4523H133.395V15.4271C133.395 12.3211 133.027 10.4287 130.813 10.4287C129.333 10.3978 127.496 11.4777 126.251 12.7942V26.4523H121.016V26.442Z" fill="var(--fill-0, #221F1E)"/>
<path id="Vector_5" d="M87.6236 59.0342V33.415H105.503L106.146 35.616C105.208 35.2457 104.167 34.9783 102.962 34.7726C100.013 34.3304 96.5942 34.2995 92.8284 34.2995V45.695C95.145 45.695 97.5943 45.7258 99.4313 45.4893C100.105 45.3864 100.676 45.2527 101.146 45.0882V47.2171C100.676 47.0114 100.074 46.8777 99.4007 46.816C97.5535 46.5795 95.145 46.6103 92.8284 46.6103V59.0548H87.6338L87.6236 59.0342Z" fill="var(--fill-0, #221F1E)"/>
<path id="Vector_6" d="M104.799 50.1791C104.799 44.5328 109.259 40.9846 114.596 40.9846C119.934 40.9846 124.424 44.5328 124.424 50.1791C124.424 55.8254 119.934 59.3736 114.596 59.3736C109.259 59.3736 104.799 55.7946 104.799 50.1791ZM119.424 52.9868C119.424 48.153 116.709 42.1056 113.147 42.1056C110.769 42.1056 109.759 44.3374 109.759 46.9086C109.759 51.7424 112.841 58.16 116.199 58.16C118.25 58.16 119.424 56.0002 119.424 52.9868Z" fill="var(--fill-0, #221F1E)"/>
<path id="Vector_7" d="M128.66 59.0342V41.2828H133.619V44.3888C135.701 41.9925 138.62 40.8714 141.028 40.8714C142.335 40.9023 143.478 41.2108 144.253 41.8896L142.478 45.2733C139.528 43.4838 136.303 42.1982 133.895 45.407V59.0342H128.66Z" fill="var(--fill-0, #221F1E)"/>
<path id="Vector_8" d="M153.581 59.0342L146.101 41.2828H151.673L157.204 54.4987L160.327 41.2828H164.317L168.308 55.3832L172.196 45.7155C172.9 43.9877 173.237 42.7741 173.033 41.2828H175.38C174.574 42.6301 173.9 44.0186 173.196 45.7772L167.797 59.024H164.174L160.215 46.1784L157.224 59.024H153.571L153.581 59.0342Z" fill="var(--fill-0, #221F1E)"/>
<path id="Vector_9" d="M177.217 55.1158C177.013 51.4647 180.707 50.3128 184.33 49.3049C186.81 48.5953 189.229 47.9576 190.433 46.6C190.504 44.2345 190.739 42.2702 188.657 41.9719C186.677 41.7354 183.83 43.422 179.931 47.3817L178.023 43.998C181.544 41.324 185.238 40.9537 187.82 40.9537C191.647 40.9537 195.638 42.4039 195.638 46.8983V59.0342H190.678V55.1158C188.198 57.9543 184.779 59.3736 182.187 59.3736C179.135 59.3736 177.319 57.6458 177.227 55.1158H177.217ZM190.392 54.005V47.9576C188.749 49.3049 186.402 49.778 184.626 50.4259C182.881 51.1047 181.809 51.8761 181.84 53.1617C181.911 55.0232 183.483 56.0722 185.8 56.0722C187.514 56.0722 189.188 55.4346 190.392 54.0153V54.005Z" fill="var(--fill-0, #221F1E)"/>
<path id="Vector_10" d="M200.679 59.0342V41.2828H205.639V44.3888C207.721 41.9925 210.64 40.8714 213.048 40.8714C214.354 40.9023 215.497 41.2108 216.273 41.8896L214.497 45.2733C211.548 43.4838 208.323 42.1982 205.914 45.407V59.0342H200.679Z" fill="var(--fill-0, #221F1E)"/>
<path id="Vector_11" d="M216.875 49.8397C216.977 43.2472 221.978 40.9537 225.927 40.9537C227.774 40.9537 229.479 41.5605 230.795 42.5478V33.4253H235.99V59.0445H230.795V56.4116C229.489 58.2732 227.509 59.1165 225.662 59.2811C219.988 59.8262 216.773 54.9204 216.875 49.85V49.8397ZM230.795 55.2495V46.6926C230.591 43.3809 228.05 41.8896 226.07 41.8896C223.182 41.9616 221.845 44.9339 221.845 48.2456C221.845 52.3697 223.927 57.0287 227.55 57.1316C228.622 57.1624 229.867 56.6893 230.805 55.2392L230.795 55.2495Z" fill="var(--fill-0, #221F1E)"/>
<path id="Vector_12" d="M42.3831 0.596513C68.4987 -1.65584 72.6625 35.5337 71.5705 54.4061C70.5602 71.9827 62.9469 81.1772 44.5568 78.8837C29.6977 77.0325 1.59204 65.1742 0.0612324 47.7313C-0.857254 37.3026 8.33782 26.1232 14.8693 18.8107C21.7375 11.1281 31.6368 1.52214 42.3831 0.596513ZM55.7419 65.1845C66.478 53.7273 64.4369 23.5931 54.5377 11.9817C45.0671 0.863915 33.5452 9.05055 26.3197 17.8748C17.1043 29.1366 11.5219 45.5407 21.5028 58.232C28.7486 67.4471 46.2713 75.2841 55.7419 65.1845Z" fill="var(--fill-0, #221F1E)"/>
<path id="Vector_13" d="M90.9812 70.4708H92.2058L95.543 79.1717H94.4612L93.6754 77.0839H89.5014L88.7054 79.1717H87.6134L90.971 70.4708H90.9812ZM93.3795 76.1686L91.6139 71.4787H91.5935L89.8178 76.1686H93.3897H93.3795Z" fill="var(--fill-0, #221F1E)"/>
<path id="Vector_14" d="M102.36 75.1504V79.1717H101.411V75.2532C101.411 74.1939 100.789 73.5151 99.8089 73.5151C98.574 73.5151 97.6759 74.3893 97.6759 75.6646V79.182H96.7472V72.9495H97.5943L97.6759 73.8751H97.6861C98.2168 73.1243 98.9822 72.7026 100.064 72.7026C101.483 72.7026 102.36 73.618 102.36 75.1607V75.1504Z" fill="var(--fill-0, #221F1E)"/>
<path id="Vector_15" d="M107.596 74.8213C107.596 72.0135 109.433 70.1623 112.239 70.1623C115.046 70.1623 116.903 72.0135 116.903 74.8213C116.903 77.629 115.066 79.47 112.239 79.47C109.412 79.47 107.596 77.6187 107.596 74.8213ZM115.872 74.8213C115.872 72.5586 114.433 71.0674 112.239 71.0674C110.045 71.0674 108.606 72.5586 108.606 74.8213C108.606 77.0839 110.045 78.5546 112.239 78.5546C114.433 78.5546 115.872 77.0633 115.872 74.8213Z" fill="var(--fill-0, #221F1E)"/>
<path id="Vector_16" d="M122.985 74.6259L122.179 74.8933C122.077 74.0191 121.628 73.546 120.954 73.546C119.965 73.546 119.332 74.3687 119.332 75.7263V79.1511H118.403V72.9186H119.199L119.281 73.8956H119.291C119.638 73.1449 120.301 72.6615 121.077 72.6615C122.128 72.6615 122.853 73.3608 122.975 74.6156L122.985 74.6259Z" fill="var(--fill-0, #221F1E)"/>
<path id="Vector_17" d="M123.822 72.9392H124.812L126.874 78.3386H126.884L128.945 72.9392H129.925L127.476 79.1717H126.261L123.822 72.9392Z" fill="var(--fill-0, #221F1E)"/>
<path id="Vector_18" d="M131.007 71.0365C131.007 70.6251 131.272 70.3577 131.691 70.3577C132.109 70.3577 132.395 70.6251 132.395 71.0365C132.395 71.4479 132.099 71.7256 131.691 71.7256C131.282 71.7256 131.007 71.4582 131.007 71.0365ZM131.211 72.9392H132.14V79.1717H131.211V72.9392Z" fill="var(--fill-0, #221F1E)"/>
<path id="Vector_19" d="M133.579 77.5364C133.579 76.5388 134.364 75.7366 136.375 75.4898L137.906 75.3046C138.212 75.2635 138.406 75.099 138.406 74.8213C138.406 74.0396 137.671 73.5357 136.589 73.5357C135.426 73.5357 134.599 74.2865 134.548 75.027L133.701 74.667C133.813 73.6385 135.018 72.682 136.62 72.682C138.222 72.682 139.314 73.5665 139.314 74.9653V79.1614H138.467L138.365 78.1227H138.355C137.916 78.9146 137.059 79.4082 135.956 79.4082C134.548 79.4082 133.568 78.6472 133.568 77.5364H133.579ZM138.396 76.4977V76.0554L136.477 76.292C134.977 76.4771 134.517 76.9605 134.517 77.5261C134.517 78.1535 135.191 78.5649 136.14 78.5649C137.436 78.5649 138.396 77.7113 138.396 76.508V76.4977Z" fill="var(--fill-0, #221F1E)"/>
<path id="Vector_20" d="M144.509 76.0555C144.509 74.0808 145.784 72.6924 147.601 72.6924C148.999 72.6924 150.142 73.5666 150.448 74.8316L149.54 75.0373C149.295 74.1322 148.509 73.5563 147.601 73.5563C146.366 73.5563 145.437 74.5642 145.437 76.0658C145.437 77.5673 146.427 78.565 147.785 78.565C148.918 78.565 149.846 77.8347 150.02 76.7651L150.928 76.9503C150.693 78.3798 149.387 79.4186 147.785 79.4186C145.856 79.4186 144.509 78.0199 144.509 76.0658V76.0555Z" fill="var(--fill-0, #221F1E)"/>
<path id="Vector_21" d="M151.989 76.0554C151.989 74.0191 153.306 72.6923 155.285 72.6923C157.265 72.6923 158.602 74.0191 158.602 76.0554C158.602 78.0918 157.286 79.4082 155.285 79.4082C153.285 79.4082 151.989 78.0815 151.989 76.0554ZM157.653 76.0554C157.653 74.5333 156.724 73.546 155.285 73.546C153.846 73.546 152.918 74.5333 152.918 76.0554C152.918 77.5776 153.846 78.5546 155.285 78.5546C156.724 78.5546 157.653 77.5673 157.653 76.0554Z" fill="var(--fill-0, #221F1E)"/>
<path id="Vector_22" d="M160.041 72.9392H160.847L160.949 73.8545H160.96C161.327 73.1243 162.133 72.6923 163.133 72.6923C164.134 72.6923 164.776 73.1449 165.093 73.9471H165.103C165.654 73.0729 166.511 72.6923 167.43 72.6923C168.777 72.6923 169.573 73.5562 169.573 75.027V79.1717H168.624V75.0887C168.624 74.1219 168.073 73.5562 167.144 73.5562C165.971 73.5562 165.266 74.4407 165.266 75.7058V79.1717H164.338V75.0887C164.338 74.1219 163.787 73.5562 162.837 73.5562C161.664 73.5562 160.96 74.4407 160.96 75.7058V79.1717H160.031V72.9392H160.041Z" fill="var(--fill-0, #221F1E)"/>
<path id="Vector_23" d="M171.206 72.9392H172.012L172.114 74.0088H172.124C172.655 73.186 173.502 72.6923 174.543 72.6923C176.36 72.6923 177.697 74.1116 177.697 76.0554C177.697 77.9992 176.36 79.4082 174.553 79.4082C173.522 79.4082 172.686 78.9249 172.145 78.1227H172.135V81.7532H171.206V72.9289V72.9392ZM176.758 76.0554C176.758 74.6156 175.778 73.546 174.441 73.546C173.104 73.546 172.124 74.6361 172.124 76.0554C172.124 77.4747 173.104 78.5443 174.441 78.5443C175.778 78.5443 176.758 77.4644 176.758 76.0554Z" fill="var(--fill-0, #221F1E)"/>
<path id="Vector_24" d="M178.768 77.5364C178.768 76.5388 179.554 75.7366 181.564 75.4898L183.095 75.3046C183.401 75.2635 183.595 75.099 183.595 74.8213C183.595 74.0396 182.86 73.5357 181.779 73.5357C180.615 73.5357 179.789 74.2865 179.738 75.027L178.891 74.667C179.003 73.6385 180.207 72.682 181.809 72.682C183.412 72.682 184.504 73.5665 184.504 74.9653V79.1614H183.656L183.554 78.1227H183.544C183.105 78.9146 182.248 79.4082 181.146 79.4082C179.738 79.4082 178.758 78.6472 178.758 77.5364H178.768ZM183.575 76.4977V76.0554L181.656 76.292C180.156 76.4771 179.697 76.9605 179.697 77.5261C179.697 78.1535 180.37 78.5649 181.319 78.5649C182.616 78.5649 183.575 77.7113 183.575 76.508V76.4977Z" fill="var(--fill-0, #221F1E)"/>
<path id="Vector_25" d="M191.76 75.1504V79.1717H190.81V75.2532C190.81 74.1939 190.188 73.5151 189.208 73.5151C187.973 73.5151 187.075 74.3893 187.075 75.6646V79.182H186.147V72.9495H186.994L187.075 73.8751H187.086C187.616 73.1243 188.382 72.7026 189.463 72.7026C190.882 72.7026 191.76 73.618 191.76 75.1607V75.1504Z" fill="var(--fill-0, #221F1E)"/>
<path id="Vector_26" d="M192.617 80.375L193.413 79.8299C193.801 80.6218 194.637 81.1464 195.74 81.1464C197.138 81.1464 197.995 80.3544 197.995 79.038V78.4929H197.985C197.556 79.2231 196.719 79.6551 195.862 79.6551C194.321 79.6551 193.311 78.4929 193.311 76.9091V72.9392H194.239V76.9091C194.239 78.0198 194.893 78.8117 195.964 78.8117C197.036 78.8117 197.975 77.9581 197.975 76.7754V72.9392H198.903V79.0483C198.914 80.9098 197.689 82.0103 195.75 82.0103C194.219 82.0103 193.076 81.3726 192.596 80.3853L192.617 80.375Z" fill="var(--fill-0, #221F1E)"/>
</g>
<defs>
<clipPath id="clip0_2039_89">
<rect width="236" height="82" fill="white"/>
</clipPath>
</defs>
</svg>
